<svg width="740" height="796" viewBox="0 0 740 796" fill="none" xmlns="http://www.w3.org/2000/svg">
<rect width="740" height="796" fill="#F5F5F5"/>
<g id="mapa">
<path id="Vector" d="M726 193.2V185C725.999 184.231 725.694 183.494 725.15 182.95C724.606 182.406 723.869 182.101 723.1 182.1H700.9C700.131 182.099 699.394 181.794 698.85 181.25C698.306 180.706 698.001 179.969 698 179.2V157C697.999 156.231 697.694 155.494 697.15 154.95C696.606 154.406 695.869 154.101 695.1 154.1H672.9C672.131 154.099 671.394 153.794 670.85 153.25C670.306 152.706 670.001 151.969 670 151.2V143C669.999 142.231 669.694 141.494 669.15 140.95C668.606 140.406 667.869 140.101 667.1 140.1H633.3C632.531 140.101 631.794 140.406 631.25 140.95C630.706 141.494 630.401 142.231 630.4 143V151.2C630.399 151.969 630.094 152.706 629.55 153.25C629.006 153.794 628.269 154.099 627.5 154.1H591.3C590.531 154.101 589.794 154.406 589.25 154.95C588.706 155.494 588.401 156.231 588.4 157V179.2C588.399 179.969 588.094 180.706 587.55 181.25C587.006 181.794 586.269 182.099 585.5 182.1H577.3C576.531 182.101 575.794 182.406 575.25 182.95C574.706 183.494 574.401 184.231 574.4 185V190.8C574.401 191.569 574.706 192.306 575.25 192.85C575.794 193.394 576.531 193.699 577.3 193.7H585.5C586.269 193.701 587.006 194.006 587.55 194.55C588.094 195.094 588.399 195.831 588.4 196.6V204.8C588.401 205.569 588.706 206.306 589.25 206.85C589.794 207.394 590.531 207.699 591.3 207.7H613.5C614.269 207.701 615.006 208.006 615.55 208.55C616.094 209.094 616.399 209.831 616.4 210.6V232.8C616.401 233.569 616.706 234.306 617.25 234.85C617.794 235.394 618.531 235.699 619.3 235.7H641.5C642.269 235.701 643.006 236.006 643.55 236.55C644.094 237.094 644.399 237.831 644.4 238.6V260.8C644.401 261.569 644.706 262.306 645.25 262.85C645.794 263.394 646.531 263.699 647.3 263.7H653.1C653.869 263.699 654.606 263.394 655.15 262.85C655.694 262.306 655.999 261.569 656 260.8V252.6C656.001 251.831 656.306 251.094 656.85 250.55C657.394 250.006 658.131 249.701 658.9 249.7H681.1C681.869 249.699 682.606 249.394 683.15 248.85C683.694 248.306 683.999 247.569 684 246.8V210.6C684.001 209.831 684.306 209.094 684.85 208.55C685.394 208.006 686.131 207.701 686.9 207.7H697.4C698.169 207.701 698.906 208.006 699.45 208.55C699.994 209.094 700.299 209.831 700.3 210.6V218.8C700.301 219.569 700.606 220.306 701.15 220.85C701.694 221.394 702.431 221.699 703.2 221.7H723C723.769 221.699 724.506 221.394 725.05 220.85C725.594 220.306 725.899 219.569 725.9 218.8V210.6C725.901 209.831 726.206 209.094 726.75 208.55C727.294 208.006 728.031 207.701 728.8 207.7H737C737.769 207.699 738.506 207.394 739.05 206.85C739.594 206.306 739.899 205.569 739.9 204.8V199C739.899 198.231 739.594 197.494 739.05 196.95C738.506 196.406 737.769 196.101 737 196.1H728.8C728.047 196.078 727.332 195.763 726.809 195.221C726.286 194.679 725.995 193.953 726 193.2Z" fill="white"/>
<path id="Vector_2" d="M698 263.2V255C697.999 254.231 697.694 253.494 697.15 252.95C696.606 252.406 695.869 252.101 695.1 252.1H661.3C660.531 252.101 659.794 252.406 659.25 252.95C658.706 253.494 658.401 254.231 658.4 255V319.2C658.399 319.969 658.094 320.706 657.55 321.25C657.006 321.794 656.269 322.099 655.5 322.1H647.3C646.531 322.101 645.794 322.406 645.25 322.95C644.706 323.494 644.401 324.231 644.4 325V344.8C644.401 345.569 644.706 346.306 645.25 346.85C645.794 347.394 646.531 347.699 647.3 347.7H655.5C656.269 347.701 657.006 348.006 657.55 348.55C658.094 349.094 658.399 349.831 658.4 350.6V372.8C658.401 373.569 658.706 374.306 659.25 374.85C659.794 375.394 660.531 375.699 661.3 375.7H667.1C667.869 375.699 668.606 375.394 669.15 374.85C669.694 374.306 669.999 373.569 670 372.8V364.6C670.001 363.831 670.306 363.094 670.85 362.55C671.394 362.006 672.131 361.701 672.9 361.7H681.1C681.869 361.699 682.606 361.394 683.15 360.85C683.694 360.306 683.999 359.569 684 358.8V350.6C684.001 349.831 684.306 349.094 684.85 348.55C685.394 348.006 686.131 347.701 686.9 347.7H695.1C695.869 347.699 696.606 347.394 697.15 346.85C697.694 346.306 697.999 345.569 698 344.8V336.6C698.001 335.831 698.306 335.094 698.85 334.55C699.394 334.006 700.131 333.701 700.9 333.7H709.1C709.869 333.699 710.606 333.394 711.15 332.85C711.694 332.306 711.999 331.569 712 330.8V269C711.999 268.231 711.694 267.494 711.15 266.95C710.606 266.406 709.869 266.101 709.1 266.1H700.9C700.131 266.099 699.394 265.794 698.85 265.25C698.306 264.706 698.001 263.969 698 263.2Z" fill="white"/>
<path id="Vector_3" d="M644.3 269V277.2C644.299 277.969 643.994 278.706 643.45 279.25C642.906 279.794 642.169 280.099 641.4 280.1H633.2C632.431 280.101 631.694 280.406 631.15 280.95C630.606 281.494 630.301 282.231 630.3 283V291.2C630.299 291.969 629.994 292.706 629.45 293.25C628.906 293.794 628.169 294.099 627.4 294.1H616.9C616.131 294.099 615.394 293.794 614.85 293.25C614.306 292.706 614.001 291.969 614 291.2V283C613.999 282.231 613.694 281.494 613.15 280.95C612.606 280.406 611.869 280.101 611.1 280.1H577.3C576.531 280.101 575.794 280.406 575.25 280.95C574.706 281.494 574.401 282.231 574.4 283V288.8C574.401 289.569 574.706 290.306 575.25 290.85C575.794 291.394 576.531 291.699 577.3 291.7H585.5C586.269 291.701 587.006 292.006 587.55 292.55C588.094 293.094 588.399 293.831 588.4 294.6V316.8C588.401 317.569 588.706 318.306 589.25 318.85C589.794 319.394 590.531 319.699 591.3 319.7H613.5C614.269 319.701 615.006 320.006 615.55 320.55C616.094 321.094 616.399 321.831 616.4 322.6V344.8C616.401 345.569 616.706 346.306 617.25 346.85C617.794 347.394 618.531 347.699 619.3 347.7H627.5C628.269 347.701 629.006 348.006 629.55 348.55C630.094 349.094 630.399 349.831 630.4 350.6V372.8C630.401 373.569 630.706 374.306 631.25 374.85C631.794 375.394 632.531 375.699 633.3 375.7H653C653.769 375.699 654.506 375.394 655.05 374.85C655.594 374.306 655.899 373.569 655.9 372.8V353C655.899 352.231 655.594 351.494 655.05 350.95C654.506 350.406 653.769 350.101 653 350.1H644.8C644.031 350.099 643.294 349.794 642.75 349.25C642.206 348.706 641.901 347.969 641.9 347.2V322.7C641.901 321.931 642.206 321.194 642.75 320.65C643.294 320.106 644.031 319.801 644.8 319.8H653C653.769 319.799 654.506 319.494 655.05 318.95C655.594 318.406 655.899 317.669 655.9 316.9V269C655.899 268.231 655.594 267.494 655.05 266.95C654.506 266.406 653.769 266.101 653 266.1H647.2C646.431 266.101 645.694 266.406 645.15 266.95C644.606 267.494 644.301 268.231 644.3 269Z" fill="white"/>
<path id="Vector_4" d="M639 238.1H591.1C590.331 238.101 589.594 238.406 589.05 238.95C588.506 239.494 588.201 240.231 588.2 241V274.8C588.201 275.569 588.506 276.306 589.05 276.85C589.594 277.394 590.331 277.699 591.1 277.7H613.3C614.069 277.701 614.806 278.006 615.35 278.55C615.894 279.094 616.199 279.831 616.2 280.6V288.8C616.201 289.569 616.506 290.306 617.05 290.85C617.594 291.394 618.331 291.699 619.1 291.7H624.9C625.669 291.699 626.406 291.394 626.95 290.85C627.494 290.306 627.799 289.569 627.8 288.8V280.6C627.801 279.831 628.106 279.094 628.65 278.55C629.194 278.006 629.931 277.701 630.7 277.7H638.9C639.669 277.699 640.406 277.394 640.95 276.85C641.494 276.306 641.799 275.569 641.8 274.8V241C641.828 240.62 641.776 240.239 641.647 239.881C641.517 239.523 641.314 239.197 641.049 238.923C640.785 238.649 640.466 238.434 640.113 238.293C639.759 238.151 639.38 238.085 639 238.1Z" fill="white"/>
<path id="Vector_5" d="M611 210.1H588.8C588.031 210.099 587.294 209.794 586.75 209.25C586.206 208.706 585.901 207.969 585.9 207.2V199C585.899 198.231 585.594 197.494 585.05 196.95C584.506 196.406 583.769 196.101 583 196.1H574.8C574.031 196.099 573.294 195.794 572.75 195.25C572.206 194.706 571.901 193.969 571.9 193.2V185C571.899 184.231 571.594 183.494 571.05 182.95C570.506 182.406 569.769 182.101 569 182.1H563.2C562.431 182.101 561.694 182.406 561.15 182.95C560.606 183.494 560.301 184.231 560.3 185V193.2C560.299 193.969 559.994 194.706 559.45 195.25C558.906 195.794 558.169 196.099 557.4 196.1H549.2C548.431 196.101 547.694 196.406 547.15 196.95C546.606 197.494 546.301 198.231 546.3 199V207.2C546.299 207.969 545.994 208.706 545.45 209.25C544.906 209.794 544.169 210.099 543.4 210.1H521.2C520.431 210.101 519.694 210.406 519.15 210.95C518.606 211.494 518.301 212.231 518.3 213V260.9C518.301 261.669 518.606 262.406 519.15 262.95C519.694 263.494 520.431 263.799 521.2 263.8H529.4C530.169 263.801 530.906 264.106 531.45 264.65C531.994 265.194 532.299 265.931 532.3 266.7V274.9C532.301 275.669 532.606 276.406 533.15 276.95C533.694 277.494 534.431 277.799 535.2 277.8H557.4C558.169 277.801 558.906 278.106 559.45 278.65C559.994 279.194 560.299 279.931 560.3 280.7V288.9C560.301 289.669 560.606 290.406 561.15 290.95C561.694 291.494 562.431 291.799 563.2 291.8H569C569.769 291.799 570.506 291.494 571.05 290.95C571.594 290.406 571.899 289.669 571.9 288.9V280.7C571.901 279.931 572.206 279.194 572.75 278.65C573.294 278.106 574.031 277.801 574.8 277.8H583C583.769 277.799 584.506 277.494 585.05 276.95C585.594 276.406 585.899 275.669 585.9 274.9V238.7C585.901 237.931 586.206 237.194 586.75 236.65C587.294 236.106 588.031 235.801 588.8 235.8H611C611.769 235.799 612.506 235.494 613.05 234.95C613.594 234.406 613.899 233.669 613.9 232.9V213C613.899 212.231 613.594 211.494 613.05 210.95C612.506 210.406 611.769 210.101 611 210.1Z" fill="white"/>
<path id="Vector_6" d="M653 378.2H630.8C630.031 378.199 629.294 377.894 628.75 377.35C628.206 376.806 627.901 376.069 627.9 375.3V353.1C627.899 352.331 627.594 351.594 627.05 351.05C626.506 350.506 625.769 350.201 625 350.2H616.8C616.031 350.199 615.294 349.894 614.75 349.35C614.206 348.806 613.901 348.069 613.9 347.3V325.1C613.899 324.331 613.594 323.594 613.05 323.05C612.506 322.506 611.769 322.201 611 322.2H588.8C588.031 322.199 587.294 321.894 586.75 321.35C586.206 320.806 585.901 320.069 585.9 319.3V297.1C585.899 296.331 585.594 295.594 585.05 295.05C584.506 294.506 583.769 294.201 583 294.2H560.8C560.031 294.199 559.294 293.894 558.75 293.35C558.206 292.806 557.901 292.069 557.9 291.3V283C557.899 282.231 557.594 281.494 557.05 280.95C556.506 280.406 555.769 280.101 555 280.1H549.2C548.431 280.101 547.694 280.406 547.15 280.95C546.606 281.494 546.301 282.231 546.3 283V305.2C546.299 305.969 545.994 306.706 545.45 307.25C544.906 307.794 544.169 308.099 543.4 308.1H535.2C534.431 308.101 533.694 308.406 533.15 308.95C532.606 309.494 532.301 310.231 532.3 311V316.8C532.301 317.569 532.606 318.306 533.15 318.85C533.694 319.394 534.431 319.699 535.2 319.7H543.4C544.169 319.701 544.906 320.006 545.45 320.55C545.994 321.094 546.299 321.831 546.3 322.6V333.1C546.299 333.869 545.994 334.606 545.45 335.15C544.906 335.694 544.169 335.999 543.4 336H535.2C534.431 336.001 533.694 336.306 533.15 336.85C532.606 337.394 532.301 338.131 532.3 338.9V372.7C532.301 373.469 532.606 374.206 533.15 374.75C533.694 375.294 534.431 375.599 535.2 375.6H543.4C544.169 375.601 544.906 375.906 545.45 376.45C545.994 376.994 546.299 377.731 546.3 378.5V386.7C546.301 387.469 546.606 388.206 547.15 388.75C547.694 389.294 548.431 389.599 549.2 389.6H571.4C572.169 389.601 572.906 389.906 573.45 390.45C573.994 390.994 574.299 391.731 574.3 392.5V400.7C574.301 401.469 574.606 402.206 575.15 402.75C575.694 403.294 576.431 403.599 577.2 403.6H583C583.769 403.599 584.506 403.294 585.05 402.75C585.594 402.206 585.899 401.469 585.9 400.7V392.5C585.901 391.731 586.206 390.994 586.75 390.45C587.294 389.906 588.031 389.601 588.8 389.6H599.3C600.069 389.601 600.806 389.906 601.35 390.45C601.894 390.994 602.199 391.731 602.2 392.5V414.7C602.201 415.469 602.506 416.206 603.05 416.75C603.594 417.294 604.331 417.599 605.1 417.6H610.9C611.669 417.599 612.406 417.294 612.95 416.75C613.494 416.206 613.799 415.469 613.8 414.7V406.5C613.801 405.731 614.106 404.994 614.65 404.45C615.194 403.906 615.931 403.601 616.7 403.6H639C639.769 403.599 640.506 403.294 641.05 402.75C641.594 402.206 641.899 401.469 641.9 400.7V392.5C641.901 391.731 642.206 390.994 642.75 390.45C643.294 389.906 644.031 389.601 644.8 389.6H653C653.769 389.599 654.506 389.294 655.05 388.75C655.594 388.206 655.899 387.469 655.9 386.7V380.9C655.895 380.53 655.816 380.164 655.666 379.825C655.516 379.487 655.299 379.182 655.028 378.93C654.756 378.677 654.437 378.483 654.089 378.357C653.74 378.232 653.37 378.178 653 378.2Z" fill="white"/>
<path id="Vector_7" d="M414.9 140.1H392.7C391.931 140.099 391.194 139.794 390.65 139.25C390.106 138.706 389.801 137.969 389.8 137.2V129C389.799 128.231 389.494 127.494 388.95 126.95C388.406 126.406 387.669 126.101 386.9 126.1H367.1C366.331 126.101 365.594 126.406 365.05 126.95C364.506 127.494 364.201 128.231 364.2 129V137.2C364.199 137.969 363.894 138.706 363.35 139.25C362.806 139.794 362.069 140.099 361.3 140.1H339.1C338.331 140.101 337.594 140.406 337.05 140.95C336.506 141.494 336.201 142.231 336.2 143V148.8C336.201 149.569 336.506 150.306 337.05 150.85C337.594 151.394 338.331 151.699 339.1 151.7H347.3C348.069 151.701 348.806 152.006 349.35 152.55C349.894 153.094 350.199 153.831 350.2 154.6V162.8C350.201 163.569 350.506 164.306 351.05 164.85C351.594 165.394 352.331 165.699 353.1 165.7H361.3C362.069 165.701 362.806 166.006 363.35 166.55C363.894 167.094 364.199 167.831 364.2 168.6V190.8C364.201 191.569 364.506 192.306 365.05 192.85C365.594 193.394 366.331 193.699 367.1 193.7H429C429.769 193.699 430.506 193.394 431.05 192.85C431.594 192.306 431.899 191.569 431.9 190.8V157C431.899 156.231 431.594 155.494 431.05 154.95C430.506 154.406 429.769 154.101 429 154.1H420.8C420.031 154.099 419.294 153.794 418.75 153.25C418.206 152.706 417.901 151.969 417.9 151.2V143C417.877 142.221 417.55 141.482 416.99 140.94C416.429 140.398 415.679 140.097 414.9 140.1Z" fill="white"/>
<path id="Vector_8" d="M434.2 129V134.8C434.201 135.569 434.506 136.306 435.05 136.85C435.594 137.394 436.331 137.699 437.1 137.7H442.9C443.669 137.699 444.406 137.394 444.95 136.85C445.494 136.306 445.799 135.569 445.8 134.8V129C445.799 128.231 445.494 127.494 444.95 126.95C444.406 126.406 443.669 126.101 442.9 126.1H437.1C436.331 126.101 435.594 126.406 435.05 126.95C434.506 127.494 434.201 128.231 434.2 129Z" fill="white"/>
<path id="Vector_9" d="M358.9 168.1H350.7C349.931 168.099 349.194 167.794 348.65 167.25C348.106 166.706 347.801 165.969 347.8 165.2V157C347.799 156.231 347.494 155.494 346.95 154.95C346.406 154.406 345.669 154.101 344.9 154.1H322.7C321.931 154.099 321.194 153.794 320.65 153.25C320.106 152.706 319.801 151.969 319.8 151.2V143C319.799 142.231 319.494 141.494 318.95 140.95C318.406 140.406 317.669 140.101 316.9 140.1H308.7C307.931 140.099 307.194 139.794 306.65 139.25C306.106 138.706 305.801 137.969 305.8 137.2V126.7C305.801 125.931 306.106 125.194 306.65 124.65C307.194 124.106 307.931 123.801 308.7 123.8H316.9C317.669 123.799 318.406 123.494 318.95 122.95C319.494 122.406 319.799 121.669 319.8 120.9V115C319.799 114.231 319.494 113.494 318.95 112.95C318.406 112.406 317.669 112.101 316.9 112.1H297C296.231 112.101 295.494 112.406 294.95 112.95C294.406 113.494 294.101 114.231 294.1 115V137.2C294.099 137.969 293.794 138.706 293.25 139.25C292.706 139.794 291.969 140.099 291.2 140.1H269C268.231 140.101 267.494 140.406 266.95 140.95C266.406 141.494 266.101 142.231 266.1 143V165.2C266.099 165.969 265.794 166.706 265.25 167.25C264.706 167.794 263.969 168.099 263.2 168.1H255C254.231 168.101 253.494 168.406 252.95 168.95C252.406 169.494 252.101 170.231 252.1 171V193.2C252.099 193.969 251.794 194.706 251.25 195.25C250.706 195.794 249.969 196.099 249.2 196.1H241C240.231 196.101 239.494 196.406 238.95 196.95C238.406 197.494 238.101 198.231 238.1 199V218.8C238.101 219.569 238.406 220.306 238.95 220.85C239.494 221.394 240.231 221.699 241 221.7H249.2C249.969 221.701 250.706 222.006 251.25 222.55C251.794 223.094 252.099 223.831 252.1 224.6V274.8C252.101 275.569 252.406 276.306 252.95 276.85C253.494 277.394 254.231 277.699 255 277.7H263.2C263.969 277.701 264.706 278.006 265.25 278.55C265.794 279.094 266.099 279.831 266.1 280.6V302.8C266.101 303.569 266.406 304.306 266.95 304.85C267.494 305.394 268.231 305.699 269 305.7H274.8C275.569 305.699 276.306 305.394 276.85 304.85C277.394 304.306 277.699 303.569 277.7 302.8V252.6C277.701 251.831 278.006 251.094 278.55 250.55C279.094 250.006 279.831 249.701 280.6 249.7H288.8C289.569 249.699 290.306 249.394 290.85 248.85C291.394 248.306 291.699 247.569 291.7 246.8V238.6C291.701 237.831 292.006 237.094 292.55 236.55C293.094 236.006 293.831 235.701 294.6 235.7H330.8C331.569 235.699 332.306 235.394 332.85 234.85C333.394 234.306 333.699 233.569 333.7 232.8V224.6C333.701 223.831 334.006 223.094 334.55 222.55C335.094 222.006 335.831 221.701 336.6 221.7H344.8C345.569 221.699 346.306 221.394 346.85 220.85C347.394 220.306 347.699 219.569 347.7 218.8V210.6C347.701 209.831 348.006 209.094 348.55 208.55C349.094 208.006 349.831 207.701 350.6 207.7H358.8C359.569 207.699 360.306 207.394 360.85 206.85C361.394 206.306 361.699 205.569 361.7 204.8V171C361.72 170.622 361.661 170.245 361.529 169.891C361.396 169.537 361.192 169.214 360.93 168.942C360.667 168.67 360.352 168.455 360.002 168.31C359.653 168.165 359.278 168.094 358.9 168.1Z" fill="white"/>
<path id="Vector_10" d="M302.9 70H294.7C293.931 69.9994 293.194 69.6937 292.65 69.15C292.106 68.6063 291.801 67.869 291.8 67.1V58.9C291.799 58.131 291.494 57.3937 290.95 56.85C290.406 56.3063 289.669 56.0006 288.9 56H252.7C251.931 55.9994 251.194 55.6937 250.65 55.15C250.106 54.6063 249.801 53.869 249.8 53.1V44.9C249.799 44.131 249.494 43.3937 248.95 42.85C248.406 42.3063 247.669 42.0006 246.9 42H238.7C237.931 41.9994 237.194 41.6937 236.65 41.15C236.106 40.6063 235.801 39.869 235.8 39.1V30.9C235.799 30.131 235.494 29.3937 234.95 28.85C234.406 28.3063 233.669 28.0006 232.9 28H227C226.231 28.0006 225.494 28.3063 224.95 28.85C224.406 29.3937 224.101 30.131 224.1 30.9V53.1C224.099 53.869 223.794 54.6063 223.25 55.15C222.706 55.6937 221.969 55.9994 221.2 56H213C212.231 56.0006 211.494 56.3063 210.95 56.85C210.406 57.3937 210.101 58.131 210.1 58.9V81.1C210.099 81.869 209.794 82.6063 209.25 83.15C208.706 83.6937 207.969 83.9994 207.2 84H199C198.231 84.0006 197.494 84.3063 196.95 84.85C196.406 85.3937 196.101 86.131 196.1 86.9V92.7C196.101 93.469 196.406 94.2063 196.95 94.75C197.494 95.2937 198.231 95.5994 199 95.6H207.2C207.969 95.6006 208.706 95.9063 209.25 96.45C209.794 96.9937 210.099 97.731 210.1 98.5V179C210.099 179.769 209.794 180.506 209.25 181.05C208.706 181.594 207.969 181.899 207.2 181.9H199C198.231 181.901 197.494 182.206 196.95 182.75C196.406 183.294 196.101 184.031 196.1 184.8V190.6C196.101 191.369 196.406 192.106 196.95 192.65C197.494 193.194 198.231 193.499 199 193.5H246.9C247.669 193.499 248.406 193.194 248.95 192.65C249.494 192.106 249.799 191.369 249.8 190.6V168.4C249.801 167.631 250.106 166.894 250.65 166.35C251.194 165.806 251.931 165.501 252.7 165.5H260.9C261.669 165.499 262.406 165.194 262.95 164.65C263.494 164.106 263.799 163.369 263.8 162.6V140.4C263.801 139.631 264.106 138.894 264.65 138.35C265.194 137.806 265.931 137.501 266.7 137.5H288.9C289.669 137.499 290.406 137.194 290.95 136.65C291.494 136.106 291.799 135.369 291.8 134.6V112.4C291.801 111.631 292.106 110.894 292.65 110.35C293.194 109.806 293.931 109.501 294.7 109.5H302.9C303.669 109.499 304.406 109.194 304.95 108.65C305.494 108.106 305.799 107.369 305.8 106.6V72.9C305.799 72.131 305.494 71.3937 304.95 70.85C304.406 70.3063 303.669 70.0006 302.9 70Z" fill="white"/>
<path id="Vector_11" d="M218.8 28H213C212.231 27.9994 211.494 27.6937 210.95 27.15C210.406 26.6063 210.101 25.869 210.1 25.1V16.9C210.099 16.131 209.794 15.3937 209.25 14.85C208.706 14.3063 207.969 14.0006 207.2 14H168.7C167.931 13.9994 167.194 13.6937 166.65 13.15C166.106 12.6063 165.801 11.869 165.8 11.1V2.9C165.799 2.13104 165.494 1.39374 164.95 0.850005C164.406 0.30627 163.669 0.000556227 162.9 0H129C128.231 0.000556227 127.494 0.30627 126.95 0.850005C126.406 1.39374 126.101 2.13104 126.1 2.9V36.7C126.101 37.469 126.406 38.2063 126.95 38.75C127.494 39.2937 128.231 39.5994 129 39.6H137.2C137.969 39.6006 138.706 39.9063 139.25 40.45C139.794 40.9937 140.099 41.731 140.1 42.5V78.7C140.101 79.469 140.406 80.2063 140.95 80.75C141.494 81.2937 142.231 81.5994 143 81.6H204.9C205.669 81.5994 206.406 81.2937 206.95 80.75C207.494 80.2063 207.799 79.469 207.8 78.7V56.6C207.801 55.831 208.106 55.0937 208.65 54.55C209.194 54.0063 209.931 53.7006 210.7 53.7H218.9C219.669 53.6994 220.406 53.3937 220.95 52.85C221.494 52.3063 221.799 51.569 221.8 50.8V30.9C221.797 30.5116 221.716 30.1277 221.563 29.7708C221.41 29.4139 221.187 29.091 220.908 28.8211C220.629 28.5511 220.299 28.3395 219.937 28.1985C219.575 28.0575 219.188 27.9901 218.8 28Z" fill="white"/>
<path id="Vector_12" d="M193.8 95.1V87C193.799 86.2311 193.494 85.4937 192.95 84.95C192.406 84.4063 191.669 84.1006 190.9 84.1H157C156.231 84.1006 155.494 84.4063 154.95 84.95C154.406 85.4937 154.101 86.2311 154.1 87V123.2C154.099 123.969 153.794 124.706 153.25 125.25C152.706 125.794 151.969 126.099 151.2 126.1H143C142.231 126.101 141.494 126.406 140.95 126.95C140.406 127.494 140.101 128.231 140.1 129V148.8C140.101 149.569 140.406 150.306 140.95 150.85C141.494 151.394 142.231 151.699 143 151.7H151.2C151.969 151.701 152.706 152.006 153.25 152.55C153.794 153.094 154.099 153.831 154.1 154.6V176.8C154.101 177.569 154.406 178.306 154.95 178.85C155.494 179.394 156.231 179.699 157 179.7H165.2C165.969 179.701 166.706 180.006 167.25 180.55C167.794 181.094 168.099 181.831 168.1 182.6V190.8C168.101 191.569 168.406 192.306 168.95 192.85C169.494 193.394 170.231 193.699 171 193.7H176.8C177.569 193.699 178.306 193.394 178.85 192.85C179.394 192.306 179.699 191.569 179.7 190.8V171C179.699 170.231 179.394 169.494 178.85 168.95C178.306 168.406 177.569 168.101 176.8 168.1H168.6C167.831 168.099 167.094 167.794 166.55 167.25C166.006 166.706 165.701 165.969 165.7 165.2V154.7C165.701 153.931 166.006 153.194 166.55 152.65C167.094 152.106 167.831 151.801 168.6 151.8H176.8C177.569 151.799 178.306 151.494 178.85 150.95C179.394 150.406 179.699 149.669 179.7 148.9V126.7C179.701 125.931 180.006 125.194 180.55 124.65C181.094 124.106 181.831 123.801 182.6 123.8H190.8C191.569 123.799 192.306 123.494 192.85 122.95C193.394 122.406 193.699 121.669 193.7 120.9V112.7C193.701 111.931 194.006 111.194 194.55 110.65C195.094 110.106 195.831 109.801 196.6 109.8H204.8C205.569 109.799 206.306 109.494 206.85 108.95C207.394 108.406 207.699 107.669 207.7 106.9V101C207.699 100.231 207.394 99.4937 206.85 98.95C206.306 98.4063 205.569 98.1006 204.8 98.1H196.6C195.843 98.039 195.137 97.6975 194.619 97.1425C194.101 96.5876 193.809 95.8591 193.8 95.1Z" fill="white"/>
<path id="Vector_13" d="M235.8 221.2V199C235.799 198.231 235.494 197.494 234.95 196.95C234.406 196.406 233.669 196.101 232.9 196.1H196.7C195.931 196.099 195.194 195.794 194.65 195.25C194.106 194.706 193.801 193.969 193.8 193.2V182.7C193.801 181.931 194.106 181.194 194.65 180.65C195.194 180.106 195.931 179.801 196.7 179.8H204.9C205.669 179.799 206.406 179.494 206.95 178.95C207.494 178.406 207.799 177.669 207.8 176.9V115C207.799 114.231 207.494 113.494 206.95 112.95C206.406 112.406 205.669 112.101 204.9 112.1H199C198.231 112.101 197.494 112.406 196.95 112.95C196.406 113.494 196.101 114.231 196.1 115V123.2C196.099 123.969 195.794 124.706 195.25 125.25C194.706 125.794 193.969 126.099 193.2 126.1H185C184.231 126.101 183.494 126.406 182.95 126.95C182.406 127.494 182.101 128.231 182.1 129V151.2C182.099 151.969 181.794 152.706 181.25 153.25C180.706 153.794 179.969 154.099 179.2 154.1H171C170.231 154.101 169.494 154.406 168.95 154.95C168.406 155.494 168.101 156.231 168.1 157V162.8C168.101 163.569 168.406 164.306 168.95 164.85C169.494 165.394 170.231 165.699 171 165.7H179.2C179.969 165.701 180.706 166.006 181.25 166.55C181.794 167.094 182.099 167.831 182.1 168.6V193.1C182.099 193.869 181.794 194.606 181.25 195.15C180.706 195.694 179.969 195.999 179.2 196H168.7C167.931 195.999 167.194 195.694 166.65 195.15C166.106 194.606 165.801 193.869 165.8 193.1V185C165.799 184.231 165.494 183.494 164.95 182.95C164.406 182.406 163.669 182.101 162.9 182.1H157C156.231 182.101 155.494 182.406 154.95 182.95C154.406 183.494 154.101 184.231 154.1 185V193.2C154.099 193.969 153.794 194.706 153.25 195.25C152.706 195.794 151.969 196.099 151.2 196.1H143C142.231 196.101 141.494 196.406 140.95 196.95C140.406 197.494 140.101 198.231 140.1 199V274.9C140.101 275.669 140.406 276.406 140.95 276.95C141.494 277.494 142.231 277.799 143 277.8H179.2C179.969 277.801 180.706 278.106 181.25 278.65C181.794 279.194 182.099 279.931 182.1 280.7V288.9C182.101 289.669 182.406 290.406 182.95 290.95C183.494 291.494 184.231 291.799 185 291.8H204.8C205.569 291.799 206.306 291.494 206.85 290.95C207.394 290.406 207.699 289.669 207.7 288.9V280.7C207.701 279.931 208.006 279.194 208.55 278.65C209.094 278.106 209.831 277.801 210.6 277.8H218.8C219.569 277.799 220.306 277.494 220.85 276.95C221.394 276.406 221.699 275.669 221.7 274.9V266.7C221.701 265.931 222.006 265.194 222.55 264.65C223.094 264.106 223.831 263.801 224.6 263.8H232.8C233.569 263.799 234.306 263.494 234.85 262.95C235.394 262.406 235.699 261.669 235.7 260.9V252.7C235.701 251.931 236.006 251.194 236.55 250.65C237.094 250.106 237.831 249.801 238.6 249.8H246.8C247.569 249.799 248.306 249.494 248.85 248.95C249.394 248.406 249.699 247.669 249.7 246.9V227C249.699 226.231 249.394 225.494 248.85 224.95C248.306 224.406 247.569 224.101 246.8 224.1H238.6C237.847 224.078 237.132 223.763 236.609 223.221C236.086 222.679 235.795 221.953 235.8 221.2Z" fill="white"/>
<path id="Vector_14" d="M543.9 179.2V171C543.899 170.231 543.594 169.494 543.05 168.95C542.506 168.406 541.769 168.101 541 168.1H518.8C518.031 168.099 517.294 167.794 516.75 167.25C516.206 166.706 515.901 165.969 515.9 165.2V157C515.899 156.231 515.594 155.494 515.05 154.95C514.506 154.406 513.769 154.101 513 154.1H465.1C464.331 154.101 463.594 154.406 463.05 154.95C462.506 155.494 462.201 156.231 462.2 157V165.2C462.199 165.969 461.894 166.706 461.35 167.25C460.806 167.794 460.069 168.099 459.3 168.1H451.1C450.331 168.101 449.594 168.406 449.05 168.95C448.506 169.494 448.201 170.231 448.2 171V179.2C448.199 179.969 447.894 180.706 447.35 181.25C446.806 181.794 446.069 182.099 445.3 182.1H437.1C436.331 182.101 435.594 182.406 435.05 182.95C434.506 183.494 434.201 184.231 434.2 185V190.8C434.201 191.569 434.506 192.306 435.05 192.85C435.594 193.394 436.331 193.699 437.1 193.7H445.3C446.069 193.701 446.806 194.006 447.35 194.55C447.894 195.094 448.199 195.831 448.2 196.6V235.1C448.199 235.869 447.894 236.606 447.35 237.15C446.806 237.694 446.069 237.999 445.3 238H437.1C436.331 238.001 435.594 238.306 435.05 238.85C434.506 239.394 434.201 240.131 434.2 240.9V246.7C434.201 247.469 434.506 248.206 435.05 248.75C435.594 249.294 436.331 249.6 437.1 249.6H499C499.769 249.599 500.506 249.294 501.05 248.75C501.594 248.206 501.899 247.469 501.9 246.7V238.5C501.901 237.731 502.206 236.994 502.75 236.45C503.294 235.906 504.031 235.601 504.8 235.6H513C513.769 235.599 514.506 235.294 515.05 234.75C515.594 234.206 515.899 233.469 515.9 232.7V210.5C515.901 209.731 516.206 208.994 516.75 208.45C517.294 207.906 518.031 207.601 518.8 207.6H541C541.769 207.599 542.506 207.294 543.05 206.75C543.594 206.206 543.899 205.469 543.9 204.7V196.5C543.901 195.731 544.206 194.994 544.75 194.45C545.294 193.906 546.031 193.601 546.8 193.6H555C555.769 193.599 556.506 193.294 557.05 192.75C557.594 192.206 557.899 191.469 557.9 190.7V185C557.899 184.231 557.594 183.494 557.05 182.95C556.506 182.406 555.769 182.101 555 182.1H546.8C546.031 182.099 545.294 181.794 544.75 181.25C544.206 180.706 543.901 179.969 543.9 179.2Z" fill="white"/>
<path id="Vector_15" d="M442.9 196.1H367C366.231 196.101 365.494 196.406 364.95 196.95C364.406 197.494 364.101 198.231 364.1 199V207.2C364.099 207.969 363.794 208.706 363.25 209.25C362.706 209.794 361.969 210.099 361.2 210.1H353C352.231 210.101 351.494 210.406 350.95 210.95C350.406 211.494 350.101 212.231 350.1 213V232.8C350.101 233.569 350.406 234.306 350.95 234.85C351.494 235.394 352.231 235.699 353 235.7H375.2C375.969 235.701 376.706 236.006 377.25 236.55C377.794 237.094 378.099 237.831 378.1 238.6V249.1C378.099 249.869 377.794 250.606 377.25 251.15C376.706 251.694 375.969 251.999 375.2 252H367C366.231 252.001 365.494 252.306 364.95 252.85C364.406 253.394 364.101 254.131 364.1 254.9V316.8C364.101 317.569 364.406 318.306 364.95 318.85C365.494 319.394 366.231 319.699 367 319.7H428.9C429.669 319.699 430.406 319.394 430.95 318.85C431.494 318.306 431.799 317.569 431.8 316.8V238.6C431.801 237.831 432.106 237.094 432.65 236.55C433.194 236.006 433.931 235.701 434.7 235.7H442.9C443.669 235.699 444.406 235.394 444.95 234.85C445.494 234.306 445.799 233.569 445.8 232.8V199C445.817 198.615 445.753 198.23 445.613 197.871C445.474 197.511 445.261 197.185 444.988 196.912C444.715 196.639 444.389 196.426 444.029 196.287C443.67 196.147 443.285 196.083 442.9 196.1Z" fill="white"/>
<path id="Vector_16" d="M543.9 302.9V283C543.899 282.231 543.594 281.494 543.05 280.95C542.506 280.406 541.769 280.101 541 280.1H532.8C532.031 280.099 531.294 279.794 530.75 279.25C530.206 278.706 529.901 277.969 529.9 277.2V269C529.899 268.231 529.594 267.494 529.05 266.95C528.506 266.406 527.769 266.101 527 266.1H518.8C518.031 266.099 517.294 265.794 516.75 265.25C516.206 264.706 515.901 263.969 515.9 263.2V241C515.899 240.231 515.594 239.494 515.05 238.95C514.506 238.406 513.769 238.101 513 238.1H507.2C506.431 238.101 505.694 238.406 505.15 238.95C504.606 239.494 504.301 240.231 504.3 241V249.2C504.299 249.969 503.994 250.706 503.45 251.25C502.906 251.794 502.169 252.099 501.4 252.1H437.2C436.431 252.101 435.694 252.406 435.15 252.95C434.606 253.494 434.301 254.231 434.3 255V316.9C434.301 317.669 434.606 318.406 435.15 318.95C435.694 319.494 436.431 319.799 437.2 319.8H445.4C446.169 319.801 446.906 320.106 447.45 320.65C447.994 321.194 448.299 321.931 448.3 322.7V330.9C448.301 331.669 448.606 332.406 449.15 332.95C449.694 333.494 450.431 333.799 451.2 333.8H459.4C460.169 333.801 460.906 334.106 461.45 334.65C461.994 335.194 462.299 335.931 462.3 336.7V344.9C462.301 345.669 462.606 346.406 463.15 346.95C463.694 347.494 464.431 347.799 465.2 347.8H473.4C474.169 347.801 474.906 348.106 475.45 348.65C475.994 349.194 476.299 349.931 476.3 350.7V386.9C476.301 387.669 476.606 388.406 477.15 388.95C477.694 389.494 478.431 389.799 479.2 389.8H485C485.769 389.799 486.506 389.494 487.05 388.95C487.594 388.406 487.899 387.669 487.9 386.9V364.7C487.901 363.931 488.206 363.194 488.75 362.65C489.294 362.106 490.031 361.801 490.8 361.8H501.3C502.069 361.801 502.806 362.106 503.35 362.65C503.894 363.194 504.199 363.931 504.2 364.7V372.9C504.201 373.669 504.506 374.406 505.05 374.95C505.594 375.494 506.331 375.799 507.1 375.8H512.9C513.669 375.799 514.406 375.494 514.95 374.95C515.494 374.406 515.799 373.669 515.8 372.9V364.7C515.801 363.931 516.106 363.194 516.65 362.65C517.194 362.106 517.931 361.801 518.7 361.8H526.9C527.669 361.799 528.406 361.494 528.95 360.95C529.494 360.406 529.799 359.669 529.8 358.9V336.7C529.801 335.931 530.106 335.194 530.65 334.65C531.194 334.106 531.931 333.801 532.7 333.8H540.9C541.669 333.799 542.406 333.494 542.95 332.95C543.494 332.406 543.799 331.669 543.8 330.9V325.1C543.799 324.331 543.494 323.594 542.95 323.05C542.406 322.506 541.669 322.201 540.9 322.2H532.7C531.931 322.199 531.194 321.894 530.65 321.35C530.106 320.806 529.801 320.069 529.8 319.3V308.8C529.801 308.031 530.106 307.294 530.65 306.75C531.194 306.206 531.931 305.901 532.7 305.9H540.9C541.69 305.881 542.442 305.559 543 305C543.559 304.442 543.881 303.69 543.9 302.9Z" fill="white"/>
<path id="Vector_17" d="M347.8 235.2V227C347.799 226.231 347.494 225.494 346.95 224.95C346.406 224.406 345.669 224.101 344.9 224.1H339.1C338.331 224.101 337.594 224.406 337.05 224.95C336.506 225.494 336.201 226.231 336.2 227V235.2C336.199 235.969 335.894 236.706 335.35 237.25C334.806 237.794 334.069 238.099 333.3 238.1H297.1C296.331 238.101 295.594 238.406 295.05 238.95C294.506 239.494 294.201 240.231 294.2 241V249.2C294.199 249.969 293.894 250.706 293.35 251.25C292.806 251.794 292.069 252.099 291.3 252.1H283C282.231 252.101 281.494 252.406 280.95 252.95C280.406 253.494 280.101 254.231 280.1 255V305.2C280.099 305.969 279.794 306.706 279.25 307.25C278.706 307.794 277.969 308.099 277.2 308.1H269C268.231 308.101 267.494 308.406 266.95 308.95C266.406 309.494 266.101 310.231 266.1 311V316.8C266.101 317.569 266.406 318.306 266.95 318.85C267.494 319.394 268.231 319.699 269 319.7H277.2C277.969 319.701 278.706 320.006 279.25 320.55C279.794 321.094 280.099 321.831 280.1 322.6V330.8C280.101 331.569 280.406 332.306 280.95 332.85C281.494 333.394 282.231 333.699 283 333.7H319.2C319.969 333.701 320.706 334.006 321.25 334.55C321.794 335.094 322.099 335.831 322.1 336.6V347.1C322.099 347.869 321.794 348.606 321.25 349.15C320.706 349.694 319.969 349.999 319.2 350H311C310.231 350.001 309.494 350.306 308.95 350.85C308.406 351.394 308.101 352.131 308.1 352.9V358.7C308.101 359.469 308.406 360.206 308.95 360.75C309.494 361.294 310.231 361.599 311 361.6H319.2C319.969 361.601 320.706 361.906 321.25 362.45C321.794 362.994 322.099 363.731 322.1 364.5V372.7C322.101 373.469 322.406 374.206 322.95 374.75C323.494 375.294 324.231 375.599 325 375.6H330.8C331.569 375.599 332.306 375.294 332.85 374.75C333.394 374.206 333.699 373.469 333.7 372.7V364.5C333.701 363.731 334.006 362.994 334.55 362.45C335.094 361.906 335.831 361.601 336.6 361.6H344.8C345.569 361.599 346.306 361.294 346.85 360.75C347.394 360.206 347.699 359.469 347.7 358.7V308.5C347.701 307.731 348.006 306.994 348.55 306.45C349.094 305.906 349.831 305.601 350.6 305.6H358.8C359.569 305.599 360.306 305.294 360.85 304.75C361.394 304.206 361.699 303.469 361.7 302.7V252.5C361.701 251.731 362.006 250.994 362.55 250.45C363.094 249.906 363.831 249.601 364.6 249.6H372.8C373.569 249.599 374.306 249.294 374.85 248.75C375.394 248.206 375.699 247.469 375.7 246.7V241C375.699 240.231 375.394 239.494 374.85 238.95C374.306 238.406 373.569 238.101 372.8 238.1H350.6C349.847 238.078 349.132 237.763 348.609 237.221C348.086 236.679 347.795 235.953 347.8 235.2Z" fill="white"/>
<path id="Vector_18" d="M361.8 319.2V311C361.799 310.231 361.494 309.494 360.95 308.95C360.406 308.406 359.669 308.101 358.9 308.1H353.1C352.331 308.101 351.594 308.406 351.05 308.95C350.506 309.494 350.201 310.231 350.2 311V361.2C350.199 361.969 349.894 362.706 349.35 363.25C348.806 363.794 348.069 364.099 347.3 364.1H339.1C338.331 364.101 337.594 364.406 337.05 364.95C336.506 365.494 336.201 366.231 336.2 367V400.8C336.201 401.569 336.506 402.306 337.05 402.85C337.594 403.394 338.331 403.699 339.1 403.7H347.3C348.069 403.701 348.806 404.006 349.35 404.55C349.894 405.094 350.199 405.831 350.2 406.6V428.8C350.201 429.569 350.506 430.306 351.05 430.85C351.594 431.394 352.331 431.699 353.1 431.7H358.9C359.669 431.699 360.406 431.394 360.95 430.85C361.494 430.306 361.799 429.569 361.8 428.8V420.6C361.801 419.831 362.106 419.094 362.65 418.55C363.194 418.006 363.931 417.701 364.7 417.7H375.2C375.969 417.701 376.706 418.006 377.25 418.55C377.794 419.094 378.099 419.831 378.1 420.6V428.8C378.101 429.569 378.406 430.306 378.95 430.85C379.494 431.394 380.231 431.699 381 431.7H400.8C401.569 431.699 402.306 431.394 402.85 430.85C403.394 430.306 403.699 429.569 403.7 428.8V420.6C403.701 419.831 404.006 419.094 404.55 418.55C405.094 418.006 405.831 417.701 406.6 417.7H428.8C429.569 417.699 430.306 417.394 430.85 416.85C431.394 416.306 431.699 415.569 431.7 414.8V381C431.699 380.231 431.394 379.494 430.85 378.95C430.306 378.406 429.569 378.101 428.8 378.1H420.6C419.831 378.099 419.094 377.794 418.55 377.25C418.006 376.706 417.701 375.969 417.7 375.2V364.7C417.701 363.931 418.006 363.194 418.55 362.65C419.094 362.106 419.831 361.801 420.6 361.8H428.8C429.569 361.799 430.306 361.494 430.85 360.95C431.394 360.406 431.699 359.669 431.7 358.9V336.7C431.701 335.931 432.006 335.194 432.55 334.65C433.094 334.106 433.831 333.801 434.6 333.8H442.8C443.569 333.799 444.306 333.494 444.85 332.95C445.394 332.406 445.699 331.669 445.7 330.9V325.1C445.699 324.331 445.394 323.594 444.85 323.05C444.306 322.506 443.569 322.201 442.8 322.2H364.6C363.843 322.139 363.137 321.798 362.619 321.243C362.101 320.688 361.809 319.959 361.8 319.2Z" fill="white"/>
<path id="Vector_19" d="M459.9 347.2V339C459.899 338.231 459.594 337.494 459.05 336.95C458.506 336.406 457.769 336.101 457 336.1H437.2C436.431 336.101 435.694 336.406 435.15 336.95C434.606 337.494 434.301 338.231 434.3 339V361.2C434.299 361.969 433.994 362.706 433.45 363.25C432.906 363.794 432.169 364.099 431.4 364.1H423.2C422.431 364.101 421.694 364.406 421.15 364.95C420.606 365.494 420.301 366.231 420.3 367V372.8C420.301 373.569 420.606 374.306 421.15 374.85C421.694 375.394 422.431 375.699 423.2 375.7H431.4C432.169 375.701 432.906 376.006 433.45 376.55C433.994 377.094 434.299 377.831 434.3 378.6V386.8C434.301 387.569 434.606 388.306 435.15 388.85C435.694 389.394 436.431 389.699 437.2 389.7H471C471.769 389.699 472.506 389.394 473.05 388.85C473.594 388.306 473.899 387.569 473.9 386.8V353C473.899 352.231 473.594 351.494 473.05 350.95C472.506 350.406 471.769 350.101 471 350.1H462.8C462.415 350.117 462.03 350.053 461.671 349.913C461.311 349.774 460.985 349.561 460.712 349.288C460.439 349.015 460.226 348.689 460.087 348.329C459.947 347.97 459.883 347.585 459.9 347.2Z" fill="white"/>
<path id="Vector_20" d="M260.9 280.1H252.7C251.931 280.099 251.194 279.794 250.65 279.25C250.106 278.706 249.801 277.969 249.8 277.2V255C249.799 254.231 249.494 253.494 248.95 252.95C248.406 252.406 247.669 252.101 246.9 252.1H241C240.231 252.101 239.494 252.406 238.95 252.95C238.406 253.494 238.101 254.231 238.1 255V263.2C238.099 263.969 237.794 264.706 237.25 265.25C236.706 265.794 235.969 266.099 235.2 266.1H227C226.231 266.101 225.494 266.406 224.95 266.95C224.406 267.494 224.101 268.231 224.1 269V277.2C224.099 277.969 223.794 278.706 223.25 279.25C222.706 279.794 221.969 280.099 221.2 280.1H213C212.231 280.101 211.494 280.406 210.95 280.95C210.406 281.494 210.101 282.231 210.1 283V291.2C210.099 291.969 209.794 292.706 209.25 293.25C208.706 293.794 207.969 294.099 207.2 294.1H182.7C181.931 294.099 181.194 293.794 180.65 293.25C180.106 292.706 179.801 291.969 179.8 291.2V283C179.799 282.231 179.494 281.494 178.95 280.95C178.406 280.406 177.669 280.101 176.9 280.1H140.7C139.931 280.099 139.194 279.794 138.65 279.25C138.106 278.706 137.801 277.969 137.8 277.2V269C137.799 268.231 137.494 267.494 136.95 266.95C136.406 266.406 135.669 266.101 134.9 266.1H129C128.231 266.101 127.494 266.406 126.95 266.95C126.406 267.494 126.101 268.231 126.1 269V291.2C126.099 291.969 125.794 292.706 125.25 293.25C124.706 293.794 123.969 294.099 123.2 294.1H115C114.231 294.101 113.494 294.406 112.95 294.95C112.406 295.494 112.101 296.231 112.1 297V305.2C112.099 305.969 111.794 306.706 111.25 307.25C110.706 307.794 109.969 308.099 109.2 308.1H101C100.231 308.101 99.4937 308.406 98.95 308.95C98.4063 309.494 98.1006 310.231 98.1 311V316.8C98.1006 317.569 98.4063 318.306 98.95 318.85C99.4937 319.394 100.231 319.699 101 319.7H109.2C109.969 319.701 110.706 320.006 111.25 320.55C111.794 321.094 112.099 321.831 112.1 322.6V372.8C112.101 373.569 112.406 374.306 112.95 374.85C113.494 375.394 114.231 375.699 115 375.7H123.2C123.969 375.701 124.706 376.006 125.25 376.55C125.794 377.094 126.099 377.831 126.1 378.6V386.8C126.101 387.569 126.406 388.306 126.95 388.85C127.494 389.394 128.231 389.699 129 389.7H162.8C163.569 389.699 164.306 389.394 164.85 388.85C165.394 388.306 165.699 387.569 165.7 386.8V378.6C165.701 377.831 166.006 377.094 166.55 376.55C167.094 376.006 167.831 375.701 168.6 375.7H179.1C179.869 375.701 180.606 376.006 181.15 376.55C181.694 377.094 181.999 377.831 182 378.6V386.8C182.001 387.569 182.306 388.306 182.85 388.85C183.394 389.394 184.131 389.699 184.9 389.7H190.7C191.469 389.699 192.206 389.394 192.75 388.85C193.294 388.306 193.599 387.569 193.6 386.8V378.6C193.601 377.831 193.906 377.094 194.45 376.55C194.994 376.006 195.731 375.701 196.5 375.7H204.7C205.469 375.699 206.206 375.394 206.75 374.85C207.294 374.306 207.599 373.569 207.6 372.8V364.6C207.601 363.831 207.906 363.094 208.45 362.55C208.994 362.006 209.731 361.701 210.5 361.7H218.7C219.469 361.699 220.206 361.394 220.75 360.85C221.294 360.306 221.599 359.569 221.6 358.8V350.6C221.601 349.831 221.906 349.094 222.45 348.55C222.994 348.006 223.731 347.701 224.5 347.7H235C235.769 347.701 236.506 348.006 237.05 348.55C237.594 349.094 237.899 349.831 237.9 350.6V358.8C237.901 359.569 238.206 360.306 238.75 360.85C239.294 361.394 240.031 361.699 240.8 361.7H246.6C247.369 361.699 248.106 361.394 248.65 360.85C249.194 360.306 249.499 359.569 249.5 358.8V350.6C249.501 349.831 249.806 349.094 250.35 348.55C250.894 348.006 251.631 347.701 252.4 347.7H260.6C261.369 347.699 262.106 347.394 262.65 346.85C263.194 346.306 263.499 345.569 263.5 344.8V283C263.56 282.631 263.537 282.254 263.432 281.895C263.327 281.537 263.143 281.206 262.893 280.928C262.644 280.65 262.336 280.431 261.991 280.288C261.646 280.145 261.273 280.08 260.9 280.1Z" fill="white"/>
<path id="Vector_21" d="M277.8 333.2V325C277.799 324.231 277.494 323.494 276.95 322.95C276.406 322.406 275.669 322.101 274.9 322.1H269C268.231 322.101 267.494 322.406 266.95 322.95C266.406 323.494 266.101 324.231 266.1 325V347.2C266.099 347.969 265.794 348.706 265.25 349.25C264.706 349.794 263.969 350.099 263.2 350.1H255C254.231 350.101 253.494 350.406 252.95 350.95C252.406 351.494 252.101 352.231 252.1 353V361.2C252.099 361.969 251.794 362.706 251.25 363.25C250.706 363.794 249.969 364.099 249.2 364.1H241C240.231 364.101 239.494 364.406 238.95 364.95C238.406 365.494 238.101 366.231 238.1 367V386.8C238.101 387.569 238.406 388.306 238.95 388.85C239.494 389.394 240.231 389.699 241 389.7H249.2C249.969 389.701 250.706 390.006 251.25 390.55C251.794 391.094 252.099 391.831 252.1 392.6V417.1C252.099 417.869 251.794 418.606 251.25 419.15C250.706 419.694 249.969 419.999 249.2 420H241C240.231 420.001 239.494 420.306 238.95 420.85C238.406 421.394 238.101 422.131 238.1 422.9V428.7C238.101 429.469 238.406 430.206 238.95 430.75C239.494 431.294 240.231 431.599 241 431.6H249.2C249.969 431.601 250.706 431.906 251.25 432.45C251.794 432.994 252.099 433.731 252.1 434.5V442.7C252.101 443.469 252.406 444.206 252.95 444.75C253.494 445.294 254.231 445.599 255 445.6H274.8C275.569 445.599 276.306 445.294 276.85 444.75C277.394 444.206 277.699 443.469 277.7 442.7V434.5C277.701 433.731 278.006 432.994 278.55 432.45C279.094 431.906 279.831 431.601 280.6 431.6H288.8C289.569 431.599 290.306 431.294 290.85 430.75C291.394 430.206 291.699 429.469 291.7 428.7V420.5C291.701 419.731 292.006 418.994 292.55 418.45C293.094 417.906 293.831 417.601 294.6 417.6H302.8C303.569 417.599 304.306 417.294 304.85 416.75C305.394 416.206 305.699 415.469 305.7 414.7V408.9C305.699 408.131 305.394 407.394 304.85 406.85C304.306 406.306 303.569 406.001 302.8 406H294.6C293.831 405.999 293.094 405.694 292.55 405.15C292.006 404.606 291.701 403.869 291.7 403.1V364.6C291.701 363.831 292.006 363.094 292.55 362.55C293.094 362.006 293.831 361.701 294.6 361.7H302.8C303.569 361.699 304.306 361.394 304.85 360.85C305.394 360.306 305.699 359.569 305.7 358.8V350.6C305.701 349.831 306.006 349.094 306.55 348.55C307.094 348.006 307.831 347.701 308.6 347.7H316.8C317.569 347.699 318.306 347.394 318.85 346.85C319.394 346.306 319.699 345.569 319.7 344.8V339C319.699 338.231 319.394 337.494 318.85 336.95C318.306 336.406 317.569 336.101 316.8 336.1H280.6C280.224 336.098 279.853 336.02 279.508 335.872C279.163 335.725 278.851 335.509 278.59 335.239C278.329 334.969 278.125 334.65 277.989 334.299C277.853 333.949 277.789 333.575 277.8 333.2Z" fill="white"/>
<path id="Vector_22" d="M249.8 414.9V395.1C249.799 394.331 249.494 393.594 248.95 393.05C248.406 392.506 247.669 392.201 246.9 392.2H238.7C237.931 392.199 237.194 391.894 236.65 391.35C236.106 390.806 235.801 390.069 235.8 389.3V353.1C235.799 352.331 235.494 351.594 234.95 351.05C234.406 350.506 233.669 350.201 232.9 350.2H227C226.231 350.201 225.494 350.506 224.95 351.05C224.406 351.594 224.101 352.331 224.1 353.1V361.3C224.099 362.069 223.794 362.806 223.25 363.35C222.706 363.894 221.969 364.199 221.2 364.2H213C212.231 364.201 211.494 364.506 210.95 365.05C210.406 365.594 210.101 366.331 210.1 367.1V375.3C210.099 376.069 209.794 376.806 209.25 377.35C208.706 377.894 207.969 378.199 207.2 378.2H199C198.231 378.201 197.494 378.506 196.95 379.05C196.406 379.594 196.101 380.331 196.1 381.1V386.9C196.101 387.669 196.406 388.406 196.95 388.95C197.494 389.494 198.231 389.799 199 389.8H207.2C207.969 389.801 208.706 390.106 209.25 390.65C209.794 391.194 210.099 391.931 210.1 392.7V403.2C210.099 403.969 209.794 404.706 209.25 405.25C208.706 405.794 207.969 406.099 207.2 406.1H199C198.231 406.101 197.494 406.406 196.95 406.95C196.406 407.494 196.101 408.231 196.1 409V457C196.101 457.769 196.406 458.506 196.95 459.05C197.494 459.594 198.231 459.899 199 459.9H221.2C221.969 459.901 222.706 460.206 223.25 460.75C223.794 461.294 224.099 462.031 224.1 462.8V471C224.101 471.769 224.406 472.506 224.95 473.05C225.494 473.594 226.231 473.899 227 473.9H232.8C233.569 473.899 234.306 473.594 234.85 473.05C235.394 472.506 235.699 471.769 235.7 471V448.8C235.701 448.031 236.006 447.294 236.55 446.75C237.094 446.206 237.831 445.901 238.6 445.9H246.8C247.569 445.899 248.306 445.594 248.85 445.05C249.394 444.506 249.699 443.769 249.7 443V437.2C249.699 436.431 249.394 435.694 248.85 435.15C248.306 434.606 247.569 434.301 246.8 434.3H238.6C237.831 434.299 237.094 433.994 236.55 433.45C236.006 432.906 235.701 432.169 235.7 431.4V420.9C235.701 420.131 236.006 419.394 236.55 418.85C237.094 418.306 237.831 418.001 238.6 418H246.8C247.6 417.959 248.354 417.616 248.91 417.041C249.467 416.465 249.785 415.7 249.8 414.9Z" fill="white"/>
<path id="Vector_23" d="M179.7 389.3V381.1C179.699 380.331 179.394 379.594 178.85 379.05C178.306 378.506 177.569 378.201 176.8 378.2H171C170.231 378.201 169.494 378.506 168.95 379.05C168.406 379.594 168.101 380.331 168.1 381.1V389.3C168.099 390.069 167.794 390.806 167.25 391.35C166.706 391.894 165.969 392.199 165.2 392.2H157C156.231 392.201 155.494 392.506 154.95 393.05C154.406 393.594 154.101 394.331 154.1 395.1V403.3C154.099 404.069 153.794 404.806 153.25 405.35C152.706 405.894 151.969 406.199 151.2 406.2H143C142.231 406.201 141.494 406.506 140.95 407.05C140.406 407.594 140.101 408.331 140.1 409.1V442.9C140.101 443.669 140.406 444.406 140.95 444.95C141.494 445.494 142.231 445.799 143 445.8H148.8C149.569 445.799 150.306 445.494 150.85 444.95C151.394 444.406 151.699 443.669 151.7 442.9V431.8H190.8C191.569 431.799 192.306 431.494 192.85 430.95C193.394 430.406 193.699 429.669 193.7 428.9V406.7C193.701 405.931 194.006 405.194 194.55 404.65C195.094 404.106 195.831 403.801 196.6 403.8H204.8C205.569 403.799 206.306 403.494 206.85 402.95C207.394 402.406 207.699 401.669 207.7 400.9V395.1C207.699 394.331 207.394 393.594 206.85 393.05C206.306 392.506 205.569 392.201 204.8 392.2H182.6C181.836 392.183 181.109 391.871 180.569 391.331C180.029 390.791 179.717 390.064 179.7 389.3Z" fill="white"/>
<path id="Vector_24" d="M148.8 392.2H126.6C125.831 392.199 125.094 391.894 124.55 391.35C124.006 390.806 123.701 390.069 123.7 389.3V381.1C123.699 380.331 123.394 379.594 122.85 379.05C122.306 378.506 121.569 378.201 120.8 378.2H112.6C111.831 378.199 111.094 377.894 110.55 377.35C110.006 376.806 109.701 376.069 109.7 375.3V339.1C109.699 338.331 109.394 337.594 108.85 337.05C108.306 336.506 107.569 336.201 106.8 336.2H101C100.231 336.201 99.4937 336.506 98.95 337.05C98.4063 337.594 98.1006 338.331 98.1 339.1V347.3C98.0994 348.069 97.7937 348.806 97.25 349.35C96.7063 349.894 95.969 350.199 95.2 350.2H87C86.231 350.201 85.4937 350.506 84.95 351.05C84.4063 351.594 84.1006 352.331 84.1 353.1V361.3C84.0994 362.069 83.7937 362.806 83.25 363.35C82.7063 363.894 81.969 364.199 81.2 364.2H73C72.2311 364.201 71.4937 364.506 70.95 365.05C70.4063 365.594 70.1006 366.331 70.1 367.1V375.3C70.0994 376.069 69.7937 376.806 69.25 377.35C68.7063 377.894 67.969 378.199 67.2 378.2H59C58.2311 378.201 57.4937 378.506 56.95 379.05C56.4063 379.594 56.1006 380.331 56.1 381.1V389.3C56.0995 390.069 55.7937 390.806 55.25 391.35C54.7063 391.894 53.969 392.199 53.2 392.2H45C44.2311 392.201 43.4937 392.506 42.95 393.05C42.4063 393.594 42.1006 394.331 42.1 395.1V400.9C42.1006 401.669 42.4063 402.406 42.95 402.95C43.4937 403.494 44.2311 403.799 45 403.8H53.2C53.969 403.801 54.7063 404.106 55.25 404.65C55.7937 405.194 56.0995 405.931 56.1 406.7V428.9C56.1006 429.669 56.4063 430.406 56.95 430.95C57.4937 431.494 58.2311 431.799 59 431.8H67.2C67.969 431.801 68.7063 432.106 69.25 432.65C69.7937 433.194 70.0994 433.931 70.1 434.7V459.2C70.0994 459.969 69.7937 460.706 69.25 461.25C68.7063 461.794 67.969 462.099 67.2 462.1H59C58.2311 462.101 57.4937 462.406 56.95 462.95C56.4063 463.494 56.1006 464.231 56.1 465V473.2C56.0995 473.969 55.7937 474.706 55.25 475.25C54.7063 475.794 53.969 476.099 53.2 476.1H45C44.2311 476.101 43.4937 476.406 42.95 476.95C42.4063 477.494 42.1006 478.231 42.1 479V499C42.1006 499.769 42.4063 500.506 42.95 501.05C43.4937 501.594 44.2311 501.899 45 501.9H53.2C53.969 501.901 54.7063 502.206 55.25 502.75C55.7937 503.294 56.0995 504.031 56.1 504.8V527C56.1006 527.769 56.4063 528.506 56.95 529.05C57.4937 529.594 58.2311 529.899 59 529.9H64.8C65.569 529.899 66.3063 529.594 66.85 529.05C67.3937 528.506 67.6994 527.769 67.7 527V518.8C67.7006 518.031 68.0063 517.294 68.55 516.75C69.0937 516.206 69.831 515.901 70.6 515.9H92.8C93.569 515.899 94.3063 515.594 94.85 515.05C95.3937 514.506 95.6994 513.769 95.7 513V504.8C95.7006 504.031 96.0063 503.294 96.55 502.75C97.0937 502.206 97.831 501.901 98.6 501.9H106.8C107.569 501.899 108.306 501.594 108.85 501.05C109.394 500.506 109.699 499.769 109.7 499V476.8C109.701 476.031 110.006 475.294 110.55 474.75C111.094 474.206 111.831 473.901 112.6 473.9H120.8C121.569 473.899 122.306 473.594 122.85 473.05C123.394 472.506 123.699 471.769 123.7 471V462.8C123.701 462.031 124.006 461.294 124.55 460.75C125.094 460.206 125.831 459.901 126.6 459.9H134.8C135.569 459.899 136.306 459.594 136.85 459.05C137.394 458.506 137.699 457.769 137.7 457V406.8C137.701 406.031 138.006 405.294 138.55 404.75C139.094 404.206 139.831 403.901 140.6 403.9H148.8C149.569 403.899 150.306 403.594 150.85 403.05C151.394 402.506 151.699 401.769 151.7 401V395.2C151.71 394.812 151.642 394.425 151.502 394.063C151.361 393.701 151.149 393.371 150.879 393.092C150.609 392.813 150.286 392.59 149.929 392.437C149.572 392.284 149.188 392.203 148.8 392.2Z" fill="white"/>
<path id="Vector_25" d="M204.8 462.2H196.6C195.831 462.199 195.094 461.894 194.55 461.35C194.006 460.806 193.701 460.069 193.7 459.3V437.1C193.699 436.331 193.394 435.594 192.85 435.05C192.306 434.506 191.569 434.201 190.8 434.2H157C156.231 434.201 155.494 434.506 154.95 435.05C154.406 435.594 154.101 436.331 154.1 437.1V445.3C154.099 446.069 153.794 446.806 153.25 447.35C152.706 447.894 151.969 448.199 151.2 448.2H143C142.231 448.201 141.494 448.506 140.95 449.05C140.406 449.594 140.101 450.331 140.1 451.1V459.3C140.099 460.069 139.794 460.806 139.25 461.35C138.706 461.894 137.969 462.199 137.2 462.2H129C128.231 462.201 127.494 462.506 126.95 463.05C126.406 463.594 126.101 464.331 126.1 465.1V473.3C126.099 474.069 125.794 474.806 125.25 475.35C124.706 475.894 123.969 476.199 123.2 476.2H115C114.231 476.201 113.494 476.506 112.95 477.05C112.406 477.594 112.101 478.331 112.1 479.1V501.3C112.099 502.069 111.794 502.806 111.25 503.35C110.706 503.894 109.969 504.199 109.2 504.2H101C100.231 504.201 99.4937 504.506 98.95 505.05C98.4063 505.594 98.1006 506.331 98.1 507.1V512.9C98.1006 513.669 98.4063 514.406 98.95 514.95C99.4937 515.494 100.231 515.799 101 515.8H109.2C109.969 515.801 110.706 516.106 111.25 516.65C111.794 517.194 112.099 517.931 112.1 518.7V526.9C112.101 527.669 112.406 528.406 112.95 528.95C113.494 529.494 114.231 529.799 115 529.8H134.8C135.569 529.799 136.306 529.494 136.85 528.95C137.394 528.406 137.699 527.669 137.7 526.9V518.7C137.701 517.931 138.006 517.194 138.55 516.65C139.094 516.106 139.831 515.801 140.6 515.8H148.8C149.569 515.799 150.306 515.494 150.85 514.95C151.394 514.406 151.699 513.669 151.7 512.9V504.7C151.701 503.931 152.006 503.194 152.55 502.65C153.094 502.106 153.831 501.801 154.6 501.8H165.1C165.869 501.801 166.606 502.106 167.15 502.65C167.694 503.194 167.999 503.931 168 504.7V512.9C168.001 513.669 168.306 514.406 168.85 514.95C169.394 515.494 170.131 515.799 170.9 515.8H190.7C191.469 515.799 192.206 515.494 192.75 514.95C193.294 514.406 193.599 513.669 193.6 512.9V490.7C193.601 489.931 193.906 489.194 194.45 488.65C194.994 488.106 195.731 487.801 196.5 487.8H204.7C205.469 487.799 206.206 487.494 206.75 486.95C207.294 486.406 207.599 485.669 207.6 484.9V465.1C207.637 464.719 207.591 464.334 207.465 463.972C207.339 463.61 207.135 463.28 206.869 463.004C206.603 462.728 206.28 462.514 205.923 462.375C205.566 462.236 205.183 462.176 204.8 462.2Z" fill="white"/>
<path id="Vector_26" d="M162.8 602.3H140.6C139.831 602.299 139.094 601.994 138.55 601.45C138.006 600.906 137.701 600.169 137.7 599.4V591.2C137.699 590.431 137.394 589.694 136.85 589.15C136.306 588.606 135.569 588.301 134.8 588.3H126.6C125.831 588.299 125.094 587.994 124.55 587.45C124.006 586.906 123.701 586.169 123.7 585.4V535.2C123.699 534.431 123.394 533.694 122.85 533.15C122.306 532.606 121.569 532.301 120.8 532.3H112.6C111.831 532.299 111.094 531.994 110.55 531.45C110.006 530.906 109.701 530.169 109.7 529.4V521.2C109.699 520.431 109.394 519.694 108.85 519.15C108.306 518.606 107.569 518.301 106.8 518.3H72.9C72.131 518.301 71.3937 518.606 70.85 519.15C70.3063 519.694 70.0006 520.431 70 521.2V529.4C69.9994 530.169 69.6937 530.906 69.15 531.45C68.6062 531.994 67.8689 532.299 67.1 532.3H58.9C58.131 532.301 57.3937 532.606 56.85 533.15C56.3062 533.694 56.0005 534.431 56 535.2V555C56.0006 555.769 56.3063 556.506 56.85 557.05C57.3937 557.594 58.131 557.899 58.9 557.9H81.1C81.869 557.901 82.6063 558.206 83.15 558.75C83.6937 559.294 83.9994 560.031 84 560.8V583C84.0006 583.769 84.3063 584.506 84.85 585.05C85.3937 585.594 86.131 585.899 86.9 585.9H95.1C95.869 585.901 96.6063 586.206 97.15 586.75C97.6937 587.294 97.9994 588.031 98 588.8V599.3C97.9994 600.069 97.6937 600.806 97.15 601.35C96.6062 601.894 95.8689 602.199 95.1 602.2H87C86.231 602.201 85.4937 602.506 84.95 603.05C84.4063 603.594 84.1006 604.331 84.1 605.1V610.9C84.1006 611.669 84.4063 612.406 84.95 612.95C85.4937 613.494 86.231 613.799 87 613.8H95.2C95.969 613.801 96.7063 614.106 97.25 614.65C97.7937 615.194 98.0994 615.931 98.1 616.7V639C98.1006 639.769 98.4063 640.506 98.95 641.05C99.4937 641.594 100.231 641.899 101 641.9H109.2C109.969 641.901 110.706 642.206 111.25 642.75C111.794 643.294 112.099 644.031 112.1 644.8V653C112.101 653.769 112.406 654.506 112.95 655.05C113.494 655.594 114.231 655.899 115 655.9H148.8C149.569 655.899 150.306 655.594 150.85 655.05C151.394 654.506 151.699 653.769 151.7 653V616.8C151.701 616.031 152.006 615.294 152.55 614.75C153.094 614.206 153.831 613.901 154.6 613.9H162.8C163.569 613.899 164.306 613.594 164.85 613.05C165.394 612.506 165.699 611.769 165.7 611V605.2C165.699 604.431 165.394 603.694 164.85 603.15C164.306 602.606 163.569 602.301 162.8 602.3Z" fill="white"/>
<path id="Vector_27" d="M95.7 597V591.2C95.6994 590.431 95.3937 589.694 94.85 589.15C94.3063 588.606 93.569 588.301 92.8 588.3H84.6C83.831 588.299 83.0937 587.994 82.55 587.45C82.0063 586.906 81.7006 586.169 81.7 585.4V563.2C81.6994 562.431 81.3937 561.694 80.85 561.15C80.3063 560.606 79.569 560.301 78.8 560.3H56.6C55.831 560.299 55.0937 559.994 54.55 559.45C54.0063 558.906 53.7006 558.169 53.7 557.4V549.2C53.6994 548.431 53.3937 547.694 52.85 547.15C52.3063 546.606 51.569 546.301 50.8 546.3H45C44.231 546.301 43.4937 546.606 42.95 547.15C42.4062 547.694 42.1005 548.431 42.1 549.2V571.4C42.0994 572.169 41.7937 572.906 41.25 573.45C40.7063 573.994 39.969 574.299 39.2 574.3H31C30.231 574.301 29.4937 574.606 28.95 575.15C28.4063 575.694 28.1006 576.431 28.1 577.2V585.4C28.0995 586.169 27.7937 586.906 27.25 587.45C26.7063 587.994 25.969 588.299 25.2 588.3H17C16.231 588.301 15.4937 588.606 14.95 589.15C14.4063 589.694 14.1006 590.431 14.1 591.2V611C14.1006 611.769 14.4063 612.506 14.95 613.05C15.4937 613.594 16.231 613.899 17 613.9H25.2C25.969 613.901 26.7063 614.206 27.25 614.75C27.7937 615.294 28.0995 616.031 28.1 616.8V655.3C28.0994 656.069 27.7937 656.806 27.25 657.35C26.7062 657.894 25.969 658.199 25.2 658.2H17C16.231 658.201 15.4937 658.506 14.95 659.05C14.4063 659.594 14.1006 660.331 14.1 661.1V666.9C14.1006 667.669 14.4063 668.406 14.95 668.95C15.4937 669.494 16.231 669.799 17 669.8H25.2C25.969 669.801 26.7063 670.106 27.25 670.65C27.7937 671.194 28.0995 671.931 28.1 672.7V680.9C28.1006 681.669 28.4063 682.406 28.95 682.95C29.4938 683.494 30.2311 683.799 31 683.8H36.8C37.569 683.799 38.3063 683.494 38.85 682.95C39.3937 682.406 39.6994 681.669 39.7 680.9V658.7C39.7006 657.931 40.0063 657.194 40.55 656.65C41.0937 656.106 41.831 655.801 42.6 655.8H50.8C51.569 655.799 52.3063 655.494 52.85 654.95C53.3937 654.406 53.6994 653.669 53.7 652.9V644.7C53.7006 643.931 54.0063 643.194 54.55 642.65C55.0938 642.106 55.8311 641.801 56.6 641.8H64.8C65.569 641.799 66.3063 641.494 66.85 640.95C67.3938 640.406 67.6995 639.669 67.7 638.9V630.7C67.7006 629.931 68.0063 629.194 68.55 628.65C69.0937 628.106 69.831 627.801 70.6 627.8H92.8C93.569 627.799 94.3063 627.494 94.85 626.95C95.3937 626.406 95.6994 625.669 95.7 624.9V619.1C95.6994 618.331 95.3937 617.594 94.85 617.05C94.3062 616.506 93.569 616.201 92.8 616.2H84.6C83.831 616.199 83.0937 615.894 82.55 615.35C82.0062 614.806 81.7005 614.069 81.7 613.3V602.8C81.7006 602.031 82.0063 601.294 82.55 600.75C83.0937 600.206 83.831 599.901 84.6 599.9H92.8C93.569 599.9 94.3063 599.594 94.8501 599.05C95.3938 598.506 95.6995 597.769 95.7 597Z" fill="white"/>
<path id="Vector_28" d="M151.7 711.4V703.2C151.699 702.431 151.394 701.694 150.85 701.15C150.306 700.606 149.569 700.301 148.8 700.3H140.6C139.831 700.299 139.094 699.994 138.55 699.45C138.006 698.906 137.701 698.169 137.7 697.4V672.9C137.701 672.131 138.006 671.394 138.55 670.85C139.094 670.306 139.831 670.001 140.6 670H148.8C149.569 669.999 150.306 669.694 150.85 669.15C151.394 668.606 151.699 667.869 151.7 667.1V661.3C151.699 660.531 151.394 659.794 150.85 659.25C150.306 658.706 149.569 658.401 148.8 658.4H112.6C111.831 658.399 111.094 658.094 110.55 657.55C110.006 657.006 109.701 656.269 109.7 655.5V647.3C109.699 646.531 109.394 645.794 108.85 645.25C108.306 644.706 107.569 644.401 106.8 644.4H98.6C97.831 644.399 97.0937 644.094 96.55 643.55C96.0063 643.006 95.7006 642.269 95.7 641.5V633.3C95.6994 632.531 95.3937 631.794 94.85 631.25C94.3063 630.706 93.569 630.401 92.8 630.4H72.9C72.131 630.401 71.3937 630.706 70.85 631.25C70.3063 631.794 70.0006 632.531 70 633.3V641.5C69.9994 642.269 69.6937 643.006 69.15 643.55C68.6063 644.094 67.869 644.399 67.1 644.4H58.9C58.131 644.401 57.3937 644.706 56.85 645.25C56.3063 645.794 56.0006 646.531 56 647.3V655.5C55.9994 656.269 55.6937 657.006 55.15 657.55C54.6063 658.094 53.869 658.399 53.1 658.4H44.9C44.131 658.401 43.3937 658.706 42.85 659.25C42.3063 659.794 42.0006 660.531 42 661.3V683.5C41.9994 684.269 41.6937 685.006 41.15 685.55C40.6062 686.094 39.8689 686.399 39.1 686.4H30.9C30.131 686.401 29.3937 686.706 28.85 687.25C28.3062 687.794 28.0005 688.531 28 689.3V709.1C28.0006 709.869 28.3063 710.606 28.85 711.15C29.3937 711.694 30.131 711.999 30.9 712H95.1C95.869 712.001 96.6063 712.306 97.15 712.85C97.6937 713.394 97.9994 714.131 98 714.9V723.1C98.0006 723.869 98.3063 724.606 98.85 725.15C99.3938 725.694 100.131 725.999 100.9 726H162.8C163.569 725.999 164.306 725.694 164.85 725.15C165.394 724.606 165.699 723.869 165.7 723.1V717.3C165.699 716.531 165.394 715.794 164.85 715.25C164.306 714.706 163.569 714.401 162.8 714.4H154.6C153.827 714.36 153.097 714.028 152.559 713.472C152.02 712.915 151.714 712.174 151.7 711.4Z" fill="white"/>
<path id="Vector_29" d="M162.8 728.3H98.6C97.831 728.299 97.0937 727.994 96.55 727.45C96.0063 726.906 95.7006 726.169 95.7 725.4V717.2C95.6994 716.431 95.3937 715.694 94.85 715.15C94.3063 714.606 93.569 714.301 92.8 714.3H28.6C27.831 714.299 27.0937 713.994 26.55 713.45C26.0063 712.906 25.7006 712.169 25.7 711.4V703.2C25.6994 702.431 25.3937 701.694 24.85 701.15C24.3063 700.606 23.569 700.301 22.8 700.3H17C16.231 700.301 15.4937 700.606 14.95 701.15C14.4062 701.694 14.1005 702.431 14.1 703.2V711.4C14.0994 712.169 13.7937 712.906 13.25 713.45C12.7063 713.994 11.969 714.299 11.2 714.3H2.9C2.13104 714.301 1.39374 714.606 0.850005 715.15C0.30627 715.694 0.000556227 716.431 0 717.2L0 723C0.000582678 723.769 0.306305 724.506 0.850034 725.05C1.39376 725.594 2.13105 725.899 2.9 725.9H25.1C25.869 725.901 26.6063 726.206 27.15 726.75C27.6938 727.294 27.9995 728.031 28 728.8V751C28.0006 751.769 28.3063 752.506 28.85 753.05C29.3937 753.594 30.131 753.899 30.9 753.9H39.1C39.869 753.901 40.6063 754.206 41.15 754.75C41.6937 755.294 41.9994 756.031 42 756.8V765C42.0006 765.769 42.3063 766.506 42.85 767.05C43.3937 767.594 44.131 767.899 44.9 767.9H53.1C53.869 767.901 54.6063 768.206 55.15 768.75C55.6937 769.294 55.9994 770.031 56 770.8V779C56.0006 779.769 56.3063 780.506 56.85 781.05C57.3937 781.594 58.131 781.899 58.9 781.9H67.1C67.869 781.901 68.6063 782.206 69.15 782.75C69.6937 783.294 69.9994 784.031 70 784.8V793C70.0006 793.769 70.3063 794.506 70.85 795.05C71.3937 795.594 72.131 795.899 72.9 795.9H78.7C79.469 795.899 80.2063 795.594 80.75 795.05C81.2937 794.506 81.5994 793.769 81.6 793V770.8C81.6006 770.031 81.9063 769.294 82.45 768.75C82.9938 768.206 83.731 767.901 84.5 767.9H92.7C93.469 767.899 94.2063 767.594 94.75 767.05C95.2938 766.506 95.5995 765.769 95.6 765V756.8C95.6006 756.031 95.9063 755.294 96.45 754.75C96.9937 754.206 97.731 753.901 98.5 753.9H123C123.769 753.901 124.506 754.206 125.05 754.75C125.594 755.294 125.899 756.031 125.9 756.8V765C125.901 765.769 126.206 766.506 126.75 767.05C127.294 767.594 128.031 767.899 128.8 767.9H134.6C135.369 767.899 136.106 767.594 136.65 767.05C137.194 766.506 137.499 765.769 137.5 765V756.8C137.501 756.031 137.806 755.294 138.35 754.75C138.894 754.206 139.631 753.901 140.4 753.9H148.6C149.369 753.899 150.106 753.594 150.65 753.05C151.194 752.506 151.499 751.769 151.5 751V742.8C151.501 742.031 151.806 741.294 152.35 740.75C152.894 740.206 153.631 739.901 154.4 739.9H162.6C163.369 739.899 164.106 739.594 164.65 739.05C165.194 738.506 165.499 737.769 165.5 737V731.2C165.54 730.826 165.499 730.449 165.38 730.093C165.261 729.736 165.067 729.41 164.811 729.135C164.555 728.86 164.243 728.643 163.896 728.499C163.549 728.355 163.175 728.287 162.8 728.3Z" fill="white"/>
<path id="Vector_30" d="M101 782H120.8C121.569 781.999 122.306 781.694 122.85 781.15C123.394 780.606 123.699 779.869 123.7 779.1V773.3C123.699 772.531 123.394 771.794 122.85 771.25C122.306 770.706 121.569 770.401 120.8 770.4H101C100.231 770.401 99.4937 770.706 98.95 771.25C98.4062 771.794 98.1005 772.531 98.1 773.3V779.1C98.0918 779.483 98.1612 779.864 98.3041 780.219C98.4469 780.575 98.6602 780.898 98.9312 781.169C99.2021 781.44 99.5251 781.653 99.8806 781.796C100.236 781.939 100.617 782.008 101 782Z" fill="white"/>
<path id="Vector_31" d="M588.3 395.1V403.3C588.299 404.069 587.994 404.806 587.45 405.35C586.906 405.894 586.169 406.199 585.4 406.2H577.2C576.431 406.201 575.694 406.506 575.15 407.05C574.606 407.594 574.301 408.331 574.3 409.1V417.3C574.299 418.069 573.994 418.806 573.45 419.35C572.906 419.894 572.169 420.199 571.4 420.2H549.2C548.431 420.201 547.694 420.506 547.15 421.05C546.606 421.594 546.301 422.331 546.3 423.1V431.3C546.299 432.069 545.994 432.806 545.45 433.35C544.906 433.894 544.169 434.199 543.4 434.2H521.2C520.431 434.201 519.694 434.506 519.15 435.05C518.606 435.594 518.301 436.331 518.3 437.1V445.3C518.299 446.069 517.994 446.806 517.45 447.35C516.906 447.894 516.169 448.199 515.4 448.2H507.2C506.431 448.201 505.694 448.506 505.15 449.05C504.606 449.594 504.301 450.331 504.3 451.1V459.3C504.299 460.069 503.994 460.806 503.45 461.35C502.906 461.894 502.169 462.199 501.4 462.2H493.2C492.431 462.201 491.694 462.506 491.15 463.05C490.606 463.594 490.301 464.331 490.3 465.1V485C490.301 485.769 490.606 486.506 491.15 487.05C491.694 487.594 492.431 487.899 493.2 487.9H499C499.769 487.899 500.506 487.594 501.05 487.05C501.594 486.506 501.899 485.769 501.9 485V476.8C501.901 476.031 502.206 475.294 502.75 474.75C503.294 474.206 504.031 473.901 504.8 473.9H527C527.769 473.899 528.506 473.594 529.05 473.05C529.594 472.506 529.899 471.769 529.9 471V462.8C529.901 462.031 530.206 461.294 530.75 460.75C531.294 460.206 532.031 459.901 532.8 459.9H541C541.769 459.899 542.506 459.594 543.05 459.05C543.594 458.506 543.899 457.769 543.9 457V448.8C543.901 448.031 544.206 447.294 544.75 446.75C545.294 446.206 546.031 445.901 546.8 445.9H569C569.769 445.899 570.506 445.594 571.05 445.05C571.594 444.506 571.899 443.769 571.9 443V434.8C571.901 434.031 572.206 433.294 572.75 432.75C573.294 432.206 574.031 431.901 574.8 431.9H597C597.769 431.899 598.506 431.594 599.05 431.05C599.594 430.506 599.899 429.769 599.9 429V395.2C599.899 394.431 599.594 393.694 599.05 393.15C598.506 392.606 597.769 392.301 597 392.3H591.2C590.823 392.28 590.445 392.339 590.091 392.471C589.737 392.604 589.414 392.808 589.142 393.07C588.87 393.333 588.655 393.648 588.51 393.998C588.365 394.347 588.294 394.722 588.3 395.1Z" fill="white"/>
<path id="Vector_32" d="M476.2 479.1V487.3C476.199 488.069 475.894 488.806 475.35 489.35C474.806 489.894 474.069 490.199 473.3 490.2H451.1C450.331 490.201 449.594 490.506 449.05 491.05C448.506 491.594 448.201 492.331 448.2 493.1V513C448.201 513.769 448.506 514.506 449.05 515.05C449.594 515.594 450.331 515.899 451.1 515.9H471C471.769 515.899 472.506 515.594 473.05 515.05C473.594 514.506 473.899 513.769 473.9 513V504.8C473.901 504.031 474.206 503.294 474.75 502.75C475.294 502.206 476.031 501.901 476.8 501.9H485C485.769 501.899 486.506 501.594 487.05 501.05C487.594 500.506 487.899 499.769 487.9 499V479.2C487.899 478.431 487.594 477.694 487.05 477.15C486.506 476.606 485.769 476.301 485 476.3H479.2C478.815 476.27 478.429 476.321 478.065 476.449C477.701 476.576 477.367 476.778 477.085 477.041C476.803 477.304 476.579 477.623 476.426 477.978C476.274 478.332 476.197 478.714 476.2 479.1Z" fill="white"/>
<path id="Vector_33" d="M569 392.2H546.8C546.031 392.199 545.294 391.894 544.75 391.35C544.206 390.806 543.901 390.069 543.9 389.3V381.1C543.899 380.331 543.594 379.594 543.05 379.05C542.506 378.506 541.769 378.201 541 378.2H532.8C532.031 378.199 531.294 377.894 530.75 377.35C530.206 376.806 529.901 376.069 529.9 375.3V367.1C529.899 366.331 529.594 365.594 529.05 365.05C528.506 364.506 527.769 364.201 527 364.2H521.2C520.431 364.201 519.694 364.506 519.15 365.05C518.606 365.594 518.301 366.331 518.3 367.1V375.3C518.299 376.069 517.994 376.806 517.45 377.35C516.906 377.894 516.169 378.199 515.4 378.2H504.9C504.131 378.199 503.394 377.894 502.85 377.35C502.306 376.806 502.001 376.069 502 375.3V367.1C501.999 366.331 501.694 365.594 501.15 365.05C500.606 364.506 499.869 364.201 499.1 364.2H493.3C492.531 364.201 491.794 364.506 491.25 365.05C490.706 365.594 490.401 366.331 490.4 367.1V389.3C490.399 390.069 490.094 390.806 489.55 391.35C489.006 391.894 488.269 392.199 487.5 392.2H465.3C464.531 392.201 463.794 392.506 463.25 393.05C462.706 393.594 462.401 394.331 462.4 395.1V428.9C462.401 429.669 462.706 430.406 463.25 430.95C463.794 431.494 464.531 431.799 465.3 431.8H473.5C474.269 431.801 475.006 432.106 475.55 432.65C476.094 433.194 476.399 433.931 476.4 434.7V471C476.401 471.769 476.706 472.506 477.25 473.05C477.794 473.594 478.531 473.899 479.3 473.9H485.1C485.869 473.899 486.606 473.594 487.15 473.05C487.694 472.506 487.999 471.769 488 471V462.8C488.001 462.031 488.306 461.294 488.85 460.75C489.394 460.206 490.131 459.901 490.9 459.9H499.1C499.869 459.899 500.606 459.594 501.15 459.05C501.694 458.506 501.999 457.769 502 457V448.8C502.001 448.031 502.306 447.294 502.85 446.75C503.394 446.206 504.131 445.901 504.9 445.9H513.1C513.869 445.899 514.606 445.594 515.15 445.05C515.694 444.506 515.999 443.769 516 443V434.8C516.001 434.031 516.306 433.294 516.85 432.75C517.394 432.206 518.131 431.901 518.9 431.9H541C541.769 431.899 542.506 431.594 543.05 431.05C543.594 430.506 543.899 429.769 543.9 429V420.8C543.901 420.031 544.206 419.294 544.75 418.75C545.294 418.206 546.031 417.901 546.8 417.9H569C569.769 417.899 570.506 417.594 571.05 417.05C571.594 416.506 571.899 415.769 571.9 415V395.2C571.91 394.812 571.842 394.425 571.701 394.063C571.561 393.701 571.349 393.371 571.079 393.092C570.809 392.813 570.486 392.59 570.129 392.437C569.772 392.284 569.388 392.203 569 392.2Z" fill="white"/>
<path id="Vector_34" d="M459.9 431.3V395.1C459.899 394.331 459.594 393.594 459.05 393.05C458.506 392.506 457.769 392.201 457 392.2H437.2C436.431 392.201 435.694 392.506 435.15 393.05C434.606 393.594 434.301 394.331 434.3 395.1V417.3C434.299 418.069 433.994 418.806 433.45 419.35C432.906 419.894 432.169 420.199 431.4 420.2H409.2C408.431 420.201 407.694 420.506 407.15 421.05C406.606 421.594 406.301 422.331 406.3 423.1V442.9C406.301 443.669 406.606 444.406 407.15 444.95C407.694 445.494 408.431 445.799 409.2 445.8H417.4C418.169 445.801 418.906 446.106 419.45 446.65C419.994 447.194 420.299 447.931 420.3 448.7V485C420.301 485.769 420.606 486.506 421.15 487.05C421.694 487.594 422.431 487.899 423.2 487.9H471C471.769 487.899 472.506 487.594 473.05 487.05C473.594 486.506 473.899 485.769 473.9 485V437.1C473.899 436.331 473.594 435.594 473.05 435.05C472.506 434.506 471.769 434.201 471 434.2H462.8C462.031 434.199 461.294 433.894 460.75 433.35C460.206 432.806 459.901 432.069 459.9 431.3Z" fill="white"/>
<path id="Vector_35" d="M445.9 515.3V493.1C445.899 492.331 445.594 491.594 445.05 491.05C444.506 490.506 443.769 490.201 443 490.2H420.8C420.031 490.199 419.294 489.894 418.75 489.35C418.206 488.806 417.901 488.069 417.9 487.3V451.1C417.899 450.331 417.594 449.594 417.05 449.05C416.506 448.506 415.769 448.201 415 448.2H406.8C406.031 448.199 405.294 447.894 404.75 447.35C404.206 446.806 403.901 446.069 403.9 445.3V437.1C403.899 436.331 403.594 435.594 403.05 435.05C402.506 434.506 401.769 434.201 401 434.2H395.2C394.431 434.201 393.694 434.506 393.15 435.05C392.606 435.594 392.301 436.331 392.3 437.1V471C392.301 471.769 392.606 472.506 393.15 473.05C393.694 473.594 394.431 473.899 395.2 473.9H403.4C404.169 473.901 404.906 474.206 405.45 474.75C405.994 475.294 406.299 476.031 406.3 476.8V529.3C406.299 530.069 405.994 530.806 405.45 531.35C404.906 531.894 404.169 532.199 403.4 532.2H395.2C394.431 532.201 393.694 532.506 393.15 533.05C392.606 533.594 392.301 534.331 392.3 535.1V540.9C392.301 541.669 392.606 542.406 393.15 542.95C393.694 543.494 394.431 543.799 395.2 543.8H457C457.769 543.799 458.506 543.494 459.05 542.95C459.594 542.406 459.899 541.669 459.9 540.9V521.1C459.899 520.331 459.594 519.594 459.05 519.05C458.506 518.506 457.769 518.201 457 518.2H448.8C448.031 518.199 447.294 517.894 446.75 517.35C446.206 516.806 445.901 516.069 445.9 515.3Z" fill="white"/>
<path id="Vector_36" d="M190.8 532.2H182.6C181.831 532.199 181.094 531.894 180.55 531.35C180.006 530.806 179.701 530.069 179.7 529.3V521.1C179.699 520.331 179.394 519.594 178.85 519.05C178.306 518.506 177.569 518.201 176.8 518.2H168.6C167.831 518.199 167.094 517.894 166.55 517.35C166.006 516.806 165.701 516.069 165.7 515.3V507.1C165.699 506.331 165.394 505.594 164.85 505.05C164.306 504.506 163.569 504.201 162.8 504.2H157C156.231 504.201 155.494 504.506 154.95 505.05C154.406 505.594 154.101 506.331 154.1 507.1V515.3C154.099 516.069 153.794 516.806 153.25 517.35C152.706 517.894 151.969 518.199 151.2 518.2H143C142.231 518.201 141.494 518.506 140.95 519.05C140.406 519.594 140.101 520.331 140.1 521.1V529.3C140.099 530.069 139.794 530.806 139.25 531.35C138.706 531.894 137.969 532.199 137.2 532.2H129C128.231 532.201 127.494 532.506 126.95 533.05C126.406 533.594 126.101 534.331 126.1 535.1V583C126.101 583.769 126.406 584.506 126.95 585.05C127.494 585.594 128.231 585.899 129 585.9H137.2C137.969 585.901 138.706 586.206 139.25 586.75C139.794 587.294 140.099 588.031 140.1 588.8V597C140.101 597.769 140.406 598.506 140.95 599.05C141.494 599.594 142.231 599.899 143 599.9H162.8C163.569 599.899 164.306 599.594 164.85 599.05C165.394 598.506 165.699 597.769 165.7 597V574.8C165.701 574.031 166.006 573.294 166.55 572.75C167.094 572.206 167.831 571.901 168.6 571.9H176.8C177.569 571.899 178.306 571.594 178.85 571.05C179.394 570.506 179.699 569.769 179.7 569V546.8C179.701 546.031 180.006 545.294 180.55 544.75C181.094 544.206 181.831 543.901 182.6 543.9H190.8C191.569 543.899 192.306 543.594 192.85 543.05C193.394 542.506 193.699 541.769 193.7 541V535.2C193.718 534.81 193.657 534.42 193.519 534.054C193.381 533.688 193.17 533.354 192.898 533.073C192.627 532.792 192.3 532.57 191.939 532.42C191.579 532.27 191.191 532.195 190.8 532.2Z" fill="white"/>
<path id="Vector_37" d="M232.9 546.2H210.7C209.931 546.199 209.194 545.894 208.65 545.35C208.106 544.806 207.801 544.069 207.8 543.3V521.1C207.799 520.331 207.494 519.594 206.95 519.05C206.406 518.506 205.669 518.201 204.9 518.2H185C184.231 518.201 183.494 518.506 182.95 519.05C182.406 519.594 182.101 520.331 182.1 521.1V526.9C182.101 527.669 182.406 528.406 182.95 528.95C183.494 529.494 184.231 529.799 185 529.8H193.2C193.969 529.801 194.706 530.106 195.25 530.65C195.794 531.194 196.099 531.931 196.1 532.7V543.2C196.099 543.969 195.794 544.706 195.25 545.25C194.706 545.794 193.969 546.099 193.2 546.1H185C184.231 546.101 183.494 546.406 182.95 546.95C182.406 547.494 182.101 548.231 182.1 549V571.2C182.099 571.969 181.794 572.706 181.25 573.25C180.706 573.794 179.969 574.099 179.2 574.1H171C170.231 574.101 169.494 574.406 168.95 574.95C168.406 575.494 168.101 576.231 168.1 577V613.2C168.099 613.969 167.794 614.706 167.25 615.25C166.706 615.794 165.969 616.099 165.2 616.1H157C156.231 616.101 155.494 616.406 154.95 616.95C154.406 617.494 154.101 618.231 154.1 619V653C154.101 653.769 154.406 654.506 154.95 655.05C155.494 655.594 156.231 655.899 157 655.9H162.8C163.569 655.899 164.306 655.594 164.85 655.05C165.394 654.506 165.699 653.769 165.7 653V644.8C165.701 644.031 166.006 643.294 166.55 642.75C167.094 642.206 167.831 641.901 168.6 641.9H176.8C177.569 641.899 178.306 641.594 178.85 641.05C179.394 640.506 179.699 639.769 179.7 639V630.8C179.701 630.031 180.006 629.294 180.55 628.75C181.094 628.206 181.831 627.901 182.6 627.9H190.8C191.569 627.899 192.306 627.594 192.85 627.05C193.394 626.506 193.699 625.769 193.7 625V616.8C193.701 616.031 194.006 615.294 194.55 614.75C195.094 614.206 195.831 613.901 196.6 613.9H218.8C219.569 613.899 220.306 613.594 220.85 613.05C221.394 612.506 221.699 611.769 221.7 611V588.8C221.701 588.031 222.006 587.294 222.55 586.75C223.094 586.206 223.831 585.901 224.6 585.9H232.8C233.569 585.899 234.306 585.594 234.85 585.05C235.394 584.506 235.699 583.769 235.7 583V549.2C235.721 548.817 235.665 548.434 235.534 548.074C235.404 547.713 235.202 547.383 234.94 547.103C234.678 546.822 234.363 546.598 234.012 546.443C233.662 546.288 233.283 546.205 232.9 546.2Z" fill="white"/>
<path id="Vector_38" d="M302.9 574.3H294.7C293.931 574.299 293.194 573.994 292.65 573.45C292.106 572.906 291.801 572.169 291.8 571.4V563.2C291.799 562.431 291.494 561.694 290.95 561.15C290.406 560.606 289.669 560.301 288.9 560.3H241C240.231 560.301 239.494 560.606 238.95 561.15C238.406 561.694 238.101 562.431 238.1 563.2V585.4C238.099 586.169 237.794 586.906 237.25 587.45C236.706 587.994 235.969 588.299 235.2 588.3H227C226.231 588.301 225.494 588.606 224.95 589.15C224.406 589.694 224.101 590.431 224.1 591.2V611C224.101 611.769 224.406 612.506 224.95 613.05C225.494 613.594 226.231 613.899 227 613.9H232.8C233.569 613.899 234.306 613.594 234.85 613.05C235.394 612.506 235.699 611.769 235.7 611V602.8C235.701 602.031 236.006 601.294 236.55 600.75C237.094 600.206 237.831 599.901 238.6 599.9H260.8C261.569 599.899 262.306 599.594 262.85 599.05C263.394 598.506 263.699 597.769 263.7 597V588.8C263.701 588.031 264.006 587.294 264.55 586.75C265.094 586.206 265.831 585.901 266.6 585.9H302.8C303.569 585.899 304.306 585.594 304.85 585.05C305.394 584.506 305.699 583.769 305.7 583V577.2C305.72 576.822 305.661 576.445 305.529 576.091C305.396 575.737 305.192 575.414 304.93 575.142C304.667 574.87 304.352 574.655 304.002 574.51C303.653 574.365 303.278 574.294 302.9 574.3Z" fill="white"/>
<path id="Vector_39" d="M294.7 445.9H302.9C303.669 445.899 304.406 445.594 304.95 445.05C305.494 444.506 305.799 443.769 305.8 443V437.2C305.799 436.431 305.494 435.694 304.95 435.15C304.406 434.606 303.669 434.301 302.9 434.3H283C282.231 434.301 281.494 434.606 280.95 435.15C280.406 435.694 280.101 436.431 280.1 437.2V445.4C280.099 446.169 279.794 446.906 279.25 447.45C278.706 447.994 277.969 448.299 277.2 448.3H241C240.231 448.301 239.494 448.606 238.95 449.15C238.406 449.694 238.101 450.431 238.1 451.2V473.4C238.099 474.169 237.794 474.906 237.25 475.45C236.706 475.994 235.969 476.299 235.2 476.3H224.7C223.931 476.299 223.194 475.994 222.65 475.45C222.106 474.906 221.801 474.169 221.8 473.4V465.2C221.799 464.431 221.494 463.694 220.95 463.15C220.406 462.606 219.669 462.301 218.9 462.3H213C212.231 462.301 211.494 462.606 210.95 463.15C210.406 463.694 210.101 464.431 210.1 465.2V487.4C210.099 488.169 209.794 488.906 209.25 489.45C208.706 489.994 207.969 490.299 207.2 490.3H199C198.231 490.301 197.494 490.606 196.95 491.15C196.406 491.694 196.101 492.431 196.1 493.2V513C196.101 513.769 196.406 514.506 196.95 515.05C197.494 515.594 198.231 515.899 199 515.9H207.2C207.969 515.901 208.706 516.206 209.25 516.75C209.794 517.294 210.099 518.031 210.1 518.8V527C210.101 527.769 210.406 528.506 210.95 529.05C211.494 529.594 212.231 529.899 213 529.9H232.8C233.569 529.899 234.306 529.594 234.85 529.05C235.394 528.506 235.699 527.769 235.7 527V518.8C235.701 518.031 236.006 517.294 236.55 516.75C237.094 516.206 237.831 515.901 238.6 515.9H246.8C247.569 515.899 248.306 515.594 248.85 515.05C249.394 514.506 249.699 513.769 249.7 513V504.8C249.701 504.031 250.006 503.294 250.55 502.75C251.094 502.206 251.831 501.901 252.6 501.9H260.8C261.569 501.899 262.306 501.594 262.85 501.05C263.394 500.506 263.699 499.769 263.7 499V490.8C263.701 490.031 264.006 489.294 264.55 488.75C265.094 488.206 265.831 487.901 266.6 487.9H302.8C303.569 487.899 304.306 487.594 304.85 487.05C305.394 486.506 305.699 485.769 305.7 485V465.2C305.699 464.431 305.394 463.694 304.85 463.15C304.306 462.606 303.569 462.301 302.8 462.3H294.6C293.831 462.299 293.094 461.994 292.55 461.45C292.006 460.906 291.701 460.169 291.7 459.4V448.9C291.719 448.11 292.041 447.358 292.6 446.8C293.158 446.241 293.91 445.919 294.7 445.9Z" fill="white"/>
<path id="Vector_40" d="M305.8 501.3V493.1C305.799 492.331 305.494 491.594 304.95 491.05C304.406 490.506 303.669 490.201 302.9 490.2H269C268.231 490.201 267.494 490.506 266.95 491.05C266.406 491.594 266.101 492.331 266.1 493.1V501.3C266.099 502.069 265.794 502.806 265.25 503.35C264.706 503.894 263.969 504.199 263.2 504.2H255C254.231 504.201 253.494 504.506 252.95 505.05C252.406 505.594 252.101 506.331 252.1 507.1V515.3C252.099 516.069 251.794 516.806 251.25 517.35C250.706 517.894 249.969 518.199 249.2 518.2H241C240.231 518.201 239.494 518.506 238.95 519.05C238.406 519.594 238.101 520.331 238.1 521.1V529.3C238.099 530.069 237.794 530.806 237.25 531.35C236.706 531.894 235.969 532.199 235.2 532.2H213C212.231 532.201 211.494 532.506 210.95 533.05C210.406 533.594 210.101 534.331 210.1 535.1V540.9C210.101 541.669 210.406 542.406 210.95 542.95C211.494 543.494 212.231 543.799 213 543.8H235.2C235.969 543.801 236.706 544.106 237.25 544.65C237.794 545.194 238.099 545.931 238.1 546.7V554.9C238.101 555.669 238.406 556.406 238.95 556.95C239.494 557.494 240.231 557.799 241 557.8H288.9C289.669 557.799 290.406 557.494 290.95 556.95C291.494 556.406 291.799 555.669 291.8 554.9V518.7C291.801 517.931 292.106 517.194 292.65 516.65C293.194 516.106 293.931 515.801 294.7 515.8H316.9C317.669 515.799 318.406 515.494 318.95 514.95C319.494 514.406 319.799 513.669 319.8 512.9V507.1C319.799 506.331 319.494 505.594 318.95 505.05C318.406 504.506 317.669 504.201 316.9 504.2H308.7C307.931 504.199 307.194 503.894 306.65 503.35C306.106 502.806 305.801 502.069 305.8 501.3Z" fill="white"/>
<path id="Vector_41" d="M414.9 546.2H392.7C391.931 546.199 391.194 545.894 390.65 545.35C390.106 544.806 389.801 544.069 389.8 543.3V535.1C389.799 534.331 389.494 533.594 388.95 533.05C388.406 532.506 387.669 532.201 386.9 532.2H367.1C366.331 532.201 365.594 532.506 365.05 533.05C364.506 533.594 364.201 534.331 364.2 535.1V543.3C364.199 544.069 363.894 544.806 363.35 545.35C362.806 545.894 362.069 546.199 361.3 546.2H353.1C352.331 546.201 351.594 546.506 351.05 547.05C350.506 547.594 350.201 548.331 350.2 549.1V569C350.201 569.769 350.506 570.506 351.05 571.05C351.594 571.594 352.331 571.899 353.1 571.9H372.9C373.669 571.899 374.406 571.594 374.95 571.05C375.494 570.506 375.799 569.769 375.8 569V560.8C375.801 560.031 376.106 559.294 376.65 558.75C377.194 558.206 377.931 557.901 378.7 557.9H414.9C415.669 557.899 416.406 557.594 416.95 557.05C417.494 556.506 417.799 555.769 417.8 555V549.2C417.81 548.812 417.743 548.425 417.602 548.063C417.461 547.701 417.249 547.371 416.979 547.092C416.709 546.812 416.386 546.59 416.029 546.437C415.672 546.283 415.288 546.203 414.9 546.2Z" fill="white"/>
<path id="Vector_42" d="M344.9 560.3H336.7C335.931 560.299 335.194 559.994 334.65 559.45C334.106 558.906 333.801 558.169 333.8 557.4V507.2C333.799 506.431 333.494 505.694 332.95 505.15C332.406 504.606 331.669 504.301 330.9 504.3H325.1C324.331 504.301 323.594 504.606 323.05 505.15C322.506 505.694 322.201 506.431 322.2 507.2V515.4C322.199 516.169 321.894 516.906 321.35 517.45C320.806 517.994 320.069 518.299 319.3 518.3H297.1C296.331 518.301 295.594 518.606 295.05 519.15C294.506 519.694 294.201 520.431 294.2 521.2V569C294.201 569.769 294.506 570.506 295.05 571.05C295.594 571.594 296.331 571.899 297.1 571.9H305.3C306.069 571.901 306.806 572.206 307.35 572.75C307.894 573.294 308.199 574.031 308.2 574.8V583C308.201 583.769 308.506 584.506 309.05 585.05C309.594 585.594 310.331 585.899 311.1 585.9H316.9C317.669 585.899 318.406 585.594 318.95 585.05C319.494 584.506 319.799 583.769 319.8 583V574.8C319.801 574.031 320.106 573.294 320.65 572.75C321.194 572.206 321.931 571.901 322.7 571.9H344.9C345.669 571.899 346.406 571.594 346.95 571.05C347.494 570.506 347.799 569.769 347.8 569V563.2C347.799 562.431 347.494 561.694 346.95 561.15C346.406 560.606 345.669 560.301 344.9 560.3Z" fill="white"/>
<path id="Vector_43" d="M378.2 479.1V487.3C378.199 488.069 377.894 488.806 377.35 489.35C376.806 489.894 376.069 490.199 375.3 490.2H364.8C364.031 490.199 363.294 489.894 362.75 489.35C362.206 488.806 361.901 488.069 361.9 487.3V465.1C361.899 464.331 361.594 463.594 361.05 463.05C360.506 462.506 359.769 462.201 359 462.2H339.2C338.431 462.201 337.694 462.506 337.15 463.05C336.606 463.594 336.301 464.331 336.3 465.1V487.3C336.299 488.069 335.994 488.806 335.45 489.35C334.906 489.894 334.169 490.199 333.4 490.2H311.2C310.431 490.201 309.694 490.506 309.15 491.05C308.606 491.594 308.301 492.331 308.3 493.1V498.9C308.301 499.669 308.606 500.406 309.15 500.95C309.694 501.494 310.431 501.799 311.2 501.8H333.4C334.169 501.801 334.906 502.106 335.45 502.65C335.994 503.194 336.299 503.931 336.3 504.7V555C336.301 555.769 336.606 556.506 337.15 557.05C337.694 557.594 338.431 557.899 339.2 557.9H345C345.769 557.899 346.506 557.594 347.05 557.05C347.594 556.506 347.899 555.769 347.9 555V546.8C347.901 546.031 348.206 545.294 348.75 544.75C349.294 544.206 350.031 543.901 350.8 543.9H359C359.769 543.899 360.506 543.594 361.05 543.05C361.594 542.506 361.899 541.769 361.9 541V532.8C361.901 532.031 362.206 531.294 362.75 530.75C363.294 530.206 364.031 529.901 364.8 529.9H401C401.769 529.899 402.506 529.594 403.05 529.05C403.594 528.506 403.899 527.769 403.9 527V479.1C403.899 478.331 403.594 477.594 403.05 477.05C402.506 476.506 401.769 476.201 401 476.2H381.2C380.812 476.19 380.425 476.258 380.063 476.399C379.702 476.54 379.371 476.751 379.092 477.021C378.813 477.291 378.59 477.614 378.437 477.971C378.284 478.328 378.203 478.712 378.2 479.1Z" fill="white"/>
<path id="Vector_44" d="M386.9 434.2H378.7C377.931 434.199 377.194 433.894 376.65 433.35C376.106 432.806 375.801 432.069 375.8 431.3V423.1C375.799 422.331 375.494 421.594 374.95 421.05C374.406 420.506 373.669 420.201 372.9 420.2H367.1C366.331 420.201 365.594 420.506 365.05 421.05C364.506 421.594 364.201 422.331 364.2 423.1V431.3C364.199 432.069 363.894 432.806 363.35 433.35C362.806 433.894 362.069 434.199 361.3 434.2H350.8C350.031 434.199 349.294 433.894 348.75 433.35C348.206 432.806 347.901 432.069 347.9 431.3V409.1C347.899 408.331 347.594 407.594 347.05 407.05C346.506 406.506 345.769 406.201 345 406.2H336.8C336.031 406.199 335.294 405.894 334.75 405.35C334.206 404.806 333.901 404.069 333.9 403.3V381.1C333.899 380.331 333.594 379.594 333.05 379.05C332.506 378.506 331.769 378.201 331 378.2H322.8C322.031 378.199 321.294 377.894 320.75 377.35C320.206 376.806 319.901 376.069 319.9 375.3V367.1C319.899 366.331 319.594 365.594 319.05 365.05C318.506 364.506 317.769 364.201 317 364.2H297.2C296.431 364.201 295.694 364.506 295.15 365.05C294.606 365.594 294.301 366.331 294.3 367.1V400.9C294.301 401.669 294.606 402.406 295.15 402.95C295.694 403.494 296.431 403.799 297.2 403.8H305.4C306.169 403.801 306.906 404.106 307.45 404.65C307.994 405.194 308.299 405.931 308.3 406.7V417.2C308.299 417.969 307.994 418.706 307.45 419.25C306.906 419.794 306.169 420.099 305.4 420.1H297.2C296.431 420.101 295.694 420.406 295.15 420.95C294.606 421.494 294.301 422.231 294.3 423V428.8C294.301 429.569 294.606 430.306 295.15 430.85C295.694 431.394 296.431 431.699 297.2 431.7H305.4C306.169 431.701 306.906 432.006 307.45 432.55C307.994 433.094 308.299 433.831 308.3 434.6V445.1C308.299 445.869 307.994 446.606 307.45 447.15C306.906 447.694 306.169 447.999 305.4 448H297.2C296.431 448.001 295.694 448.306 295.15 448.85C294.606 449.394 294.301 450.131 294.3 450.9V456.7C294.301 457.469 294.606 458.206 295.15 458.75C295.694 459.294 296.431 459.599 297.2 459.6H305.4C306.169 459.601 306.906 459.906 307.45 460.45C307.994 460.994 308.299 461.731 308.3 462.5V485C308.301 485.769 308.606 486.506 309.15 487.05C309.694 487.594 310.431 487.899 311.2 487.9H331C331.769 487.899 332.506 487.594 333.05 487.05C333.594 486.506 333.899 485.769 333.9 485V462.8C333.901 462.031 334.206 461.294 334.75 460.75C335.294 460.206 336.031 459.901 336.8 459.9H361.3C362.069 459.901 362.806 460.206 363.35 460.75C363.894 461.294 364.199 462.031 364.2 462.8V485C364.201 485.769 364.506 486.506 365.05 487.05C365.594 487.594 366.331 487.899 367.1 487.9H372.9C373.669 487.899 374.406 487.594 374.95 487.05C375.494 486.506 375.799 485.769 375.8 485V476.8C375.801 476.031 376.106 475.294 376.65 474.75C377.194 474.206 377.931 473.901 378.7 473.9H386.9C387.669 473.899 388.406 473.594 388.95 473.05C389.494 472.506 389.799 471.769 389.8 471V437.2C389.81 436.812 389.742 436.425 389.602 436.063C389.461 435.701 389.249 435.371 388.979 435.092C388.709 434.813 388.386 434.59 388.029 434.437C387.672 434.284 387.288 434.203 386.9 434.2Z" fill="white"/>
</g>
</svg>
