<svg width="17" height="24" viewBox="0 0 17 24" fill="none" xmlns="http://www.w3.org/2000/svg">
<path d="M13.4209 4.01648H4.14429V12.7825H13.4209V4.01648Z" fill="white"/>
<path d="M8.82519 11.1907C8.25835 11.1907 7.70423 11.0226 7.23292 10.7077C6.76161 10.3928 6.39427 9.94514 6.17735 9.42145C5.96042 8.89775 5.90367 8.32151 6.01425 7.76556C6.12484 7.20961 6.3978 6.69897 6.79861 6.29816C7.19943 5.89734 7.7101 5.62438 8.26605 5.51379C8.822 5.40321 9.39827 5.45996 9.92196 5.67688C10.4457 5.8938 10.8933 6.26111 11.2082 6.73242C11.5231 7.20373 11.6912 7.75787 11.6912 8.32471C11.6912 9.08482 11.3892 9.81378 10.8518 10.3513C10.3143 10.8887 9.5853 11.1907 8.82519 11.1907ZM8.82519 0.299927C7.77132 0.299874 6.72776 0.507384 5.7541 0.910645C4.78044 1.31391 3.89575 1.90497 3.15054 2.65015C2.40532 3.39532 1.81418 4.28002 1.41087 5.25366C1.00756 6.2273 0.799988 7.27084 0.799988 8.32471C0.799988 14.3433 8.82478 23.2279 8.82478 23.2279C8.82478 23.2279 16.8496 14.3433 16.8496 8.32471C16.8496 6.19648 16.0041 4.15542 14.4993 2.65051C12.9944 1.1456 10.9534 0.300033 8.82519 0.299927Z" fill="#EF0F0F"/>
</svg>
